<svg xmlns="http://www.w3.org/2000/svg" xmlns:xlink="http://www.w3.org/1999/xlink" width="512" zoomAndPan="magnify" viewBox="0 0 384 383.999986" height="512" preserveAspectRatio="xMidYMid meet" version="1.0"><defs><clipPath id="6c3a0f4c31"><path d="M 71.71875 71.71875 L 312.46875 71.71875 L 312.46875 312.46875 L 71.71875 312.46875 Z M 71.71875 71.71875 " clip-rule="nonzero"/></clipPath></defs><g clip-path="url(#6c3a0f4c31)"><path fill="#e5a214" d="M 142.152344 72.546875 C 129.359375 73.148438 120.621094 75.199219 112.984375 78.1875 C 105.078125 81.269531 98.378906 85.394531 91.71875 92.09375 C 85.042969 98.789062 80.941406 105.496094 77.894531 113.417969 C 74.9375 121.074219 72.929688 129.8125 72.363281 142.617188 C 71.796875 155.429688 71.675781 159.519531 71.730469 192.175781 C 71.789062 224.820312 71.933594 228.921875 72.546875 241.746094 C 73.160156 254.539062 75.199219 263.265625 78.1875 270.914062 C 81.269531 278.820312 85.394531 285.507812 92.09375 292.179688 C 98.789062 298.855469 105.496094 302.945312 113.417969 306.003906 C 121.0625 308.960938 129.8125 310.976562 142.605469 311.535156 C 155.429688 312.101562 159.519531 312.226562 192.164062 312.15625 C 224.820312 312.101562 228.910156 311.953125 241.738281 311.339844 C 254.527344 310.730469 263.253906 308.679688 270.902344 305.699219 C 278.808594 302.605469 285.507812 298.492188 292.167969 291.796875 C 298.832031 285.097656 302.933594 278.390625 305.992188 270.472656 C 308.949219 262.824219 310.96875 254.074219 311.523438 241.292969 C 312.078125 228.46875 312.214844 224.367188 312.15625 191.722656 C 312.101562 159.078125 311.941406 154.988281 311.339844 142.164062 C 310.730469 129.359375 308.691406 120.632812 305.699219 112.984375 C 302.605469 105.078125 298.492188 98.390625 291.796875 91.71875 C 285.097656 85.054688 278.390625 80.941406 270.472656 77.894531 C 262.824219 74.9375 254.074219 72.921875 241.28125 72.363281 C 228.457031 71.796875 224.355469 71.675781 191.710938 71.730469 C 159.066406 71.789062 154.976562 71.933594 142.152344 72.546875 M 143.554688 289.878906 C 131.839844 289.371094 125.472656 287.421875 121.222656 285.789062 C 115.601562 283.613281 111.601562 281.007812 107.375 276.828125 C 103.160156 272.625 100.554688 268.625 98.359375 263.027344 C 96.714844 258.789062 94.730469 252.433594 94.175781 240.707031 C 93.574219 228.039062 93.441406 224.230469 93.382812 192.128906 C 93.328125 160.042969 93.441406 156.234375 93.996094 143.554688 C 94.492188 131.839844 96.453125 125.472656 98.085938 121.234375 C 100.261719 115.613281 102.855469 111.613281 107.046875 107.386719 C 111.253906 103.171875 115.25 100.566406 120.859375 98.367188 C 125.097656 96.714844 131.453125 94.742188 143.171875 94.1875 C 155.851562 93.585938 159.644531 93.460938 191.746094 93.394531 C 223.84375 93.328125 227.652344 93.441406 240.332031 94.007812 C 252.046875 94.515625 258.414062 96.453125 262.652344 98.097656 C 268.273438 100.273438 272.285156 102.855469 276.5 107.058594 C 280.714844 111.261719 283.332031 115.25 285.519531 120.871094 C 287.171875 125.097656 289.144531 131.464844 289.699219 143.171875 C 290.300781 155.851562 290.4375 159.65625 290.492188 191.746094 C 290.550781 223.84375 290.4375 227.652344 289.878906 240.320312 C 289.371094 252.035156 287.421875 258.414062 285.789062 262.652344 C 283.613281 268.261719 281.019531 272.273438 276.816406 276.488281 C 272.613281 280.691406 268.625 283.308594 263.003906 285.507812 C 258.777344 287.160156 252.410156 289.132812 240.707031 289.6875 C 228.027344 290.289062 224.230469 290.425781 192.121094 290.480469 C 160.03125 290.539062 156.222656 290.425781 143.542969 289.871094 M 241.566406 127.679688 C 241.578125 135.648438 248.058594 142.09375 256.011719 142.070312 C 263.980469 142.058594 270.425781 135.589844 270.414062 127.625 C 270.402344 119.660156 263.921875 113.210938 255.957031 113.222656 C 247.992188 113.234375 241.542969 119.714844 241.554688 127.671875 M 130.207031 192.0625 C 130.277344 226.15625 157.96875 253.734375 192.050781 253.667969 C 226.144531 253.601562 253.734375 225.917969 253.667969 191.824219 C 253.601562 157.742188 225.90625 130.152344 191.8125 130.207031 C 157.730469 130.277344 130.140625 157.96875 130.207031 192.0625 M 151.859375 192.015625 C 151.828125 169.886719 169.730469 151.90625 191.859375 151.871094 C 213.988281 151.828125 231.96875 169.730469 232.015625 191.871094 C 232.058594 214 214.144531 231.980469 192.015625 232.015625 C 169.886719 232.058594 151.90625 214.144531 151.871094 192.015625 " fill-opacity="1" fill-rule="nonzero"/></g></svg>