<svg xmlns="http://www.w3.org/2000/svg" xmlns:xlink="http://www.w3.org/1999/xlink" width="512" zoomAndPan="magnify" viewBox="0 0 384 383.999986" height="512" preserveAspectRatio="xMidYMid meet" version="1.0"><defs><clipPath id="3a8ec02b52"><path d="M 58.988281 58.261719 L 325 58.261719 L 325 326 L 58.988281 326 Z M 58.988281 58.261719 " clip-rule="nonzero"/></clipPath></defs><g clip-path="url(#3a8ec02b52)"><path fill="#ffffff" d="M 286.21875 97.230469 C 261.21875 72.203125 227.96875 58.390625 192.539062 58.390625 C 119.539062 58.390625 60.125 117.792969 60.101562 190.820312 C 60.101562 214.15625 66.191406 236.953125 77.78125 257.023438 L 58.988281 325.648438 L 129.199219 307.230469 C 148.546875 317.789062 170.324219 323.335938 192.488281 323.351562 L 192.539062 323.351562 C 265.523438 323.351562 324.953125 263.9375 324.964844 190.925781 C 324.964844 155.535156 311.222656 122.273438 286.207031 97.230469 Z M 192.539062 300.992188 L 192.5 300.992188 C 172.757812 300.992188 153.371094 295.679688 136.46875 285.648438 L 132.453125 283.257812 L 90.785156 294.183594 L 101.898438 253.5625 L 99.28125 249.398438 C 88.261719 231.878906 82.445312 211.617188 82.460938 190.820312 C 82.484375 130.136719 131.871094 80.75 192.578125 80.75 C 221.980469 80.75 249.613281 92.222656 270.402344 113.035156 C 291.1875 133.835938 302.621094 161.496094 302.605469 190.910156 C 302.578125 251.605469 253.195312 300.992188 192.527344 300.992188 Z M 252.917969 218.558594 C 249.613281 216.90625 233.347656 208.898438 230.308594 207.800781 C 227.269531 206.691406 225.074219 206.148438 222.867188 209.453125 C 220.660156 212.769531 214.316406 220.222656 212.386719 222.429688 C 210.457031 224.636719 208.53125 224.914062 205.210938 223.246094 C 201.910156 221.597656 191.246094 218.09375 178.597656 206.820312 C 168.765625 198.046875 162.117188 187.210938 160.191406 183.894531 C 158.261719 180.578125 159.992188 178.792969 161.644531 177.140625 C 163.125 175.660156 164.945312 173.269531 166.613281 171.339844 C 168.265625 169.410156 168.820312 168.023438 169.914062 165.816406 C 171.027344 163.609375 170.46875 161.679688 169.636719 160.015625 C 168.804688 158.363281 162.199219 142.070312 159.4375 135.449219 C 156.753906 129 154.019531 129.871094 151.996094 129.765625 C 150.066406 129.671875 147.859375 129.648438 145.652344 129.648438 C 143.445312 129.648438 139.863281 130.464844 136.824219 133.785156 C 133.785156 137.101562 125.25 145.109375 125.25 161.390625 C 125.25 177.667969 137.101562 193.410156 138.769531 195.628906 C 140.421875 197.835938 162.105469 231.257812 195.300781 245.59375 C 203.191406 249.003906 209.363281 251.039062 214.171875 252.570312 C 222.101562 255.097656 229.316406 254.738281 235.011719 253.878906 C 241.367188 252.929688 254.582031 245.871094 257.34375 238.140625 C 260.105469 230.410156 260.105469 223.789062 259.273438 222.402344 C 258.441406 221.015625 256.234375 220.195312 252.929688 218.53125 Z M 252.917969 218.558594 " fill-opacity="1" fill-rule="evenodd"/></g></svg>