<svg xmlns="http://www.w3.org/2000/svg" xmlns:xlink="http://www.w3.org/1999/xlink" width="160" zoomAndPan="magnify" viewBox="0 0 120 48" height="64" preserveAspectRatio="xMidYMid meet" version="1.0"><path fill="#b18d32" d="M 24.488281 21.359375 C 24.632812 20.851562 24.757812 20.414062 24.925781 19.824219 C 23.816406 19.800781 22.808594 19.902344 21.882812 20.398438 C 21.621094 20.539062 21.476562 20.90625 21.136719 21.359375 Z M 30.292969 19.285156 C 31.222656 18.195312 31.972656 17.308594 32.734375 16.429688 C 33.21875 15.867188 33.757812 15.351562 34.195312 14.757812 C 34.597656 14.214844 35.082031 14.078125 35.714844 14.121094 C 36.347656 14.167969 36.984375 14.132812 37.875 14.132812 C 36.894531 15.328125 36.054688 16.347656 35.117188 17.492188 C 35.808594 17.523438 36.382812 17.566406 36.953125 17.574219 C 39.425781 17.601562 41.902344 17.578125 44.375 17.664062 C 45.171875 17.691406 46.003906 17.894531 46.742188 18.199219 C 48.132812 18.777344 48.390625 19.566406 47.921875 21.363281 L 50.390625 21.363281 C 50.769531 20.125 51.144531 18.910156 51.519531 17.691406 L 55.050781 17.691406 C 54.679688 18.941406 54.332031 20.105469 53.957031 21.363281 L 56.917969 21.363281 C 57.28125 20.175781 57.648438 18.960938 58.039062 17.675781 L 61.558594 17.675781 C 60.980469 19.574219 60.433594 21.371094 59.859375 23.261719 L 27.410156 23.261719 C 26.9375 25.074219 25.6875 26.101562 24.066406 26.675781 C 23.136719 27.003906 22.136719 27.136719 20.976562 27.402344 C 21.230469 26.578125 21.40625 26.015625 21.582031 25.445312 C 22.6875 25.148438 23.523438 24.617188 23.769531 23.320312 L 17.289062 23.320312 C 17.035156 21.335938 18.753906 18.683594 20.796875 18.125 C 22.058594 17.78125 23.410156 17.722656 24.726562 17.640625 C 26.003906 17.558594 27.292969 17.605469 28.574219 17.605469 C 28.726562 17.605469 28.882812 17.644531 29.136719 17.683594 C 28.777344 18.914062 28.429688 20.089844 28.058594 21.355469 L 44.382812 21.355469 C 44.792969 20.085938 44.0625 19.4375 42.949219 19.40625 C 39.160156 19.289062 35.367188 19.3125 31.574219 19.285156 C 31.230469 19.28125 30.886719 19.285156 30.292969 19.285156 " fill-opacity="1" fill-rule="nonzero"/><path fill="#b18d32" d="M 64.777344 14.175781 L 68.308594 14.175781 C 67.558594 16.585938 66.835938 18.914062 66.078125 21.359375 L 67.808594 21.359375 C 68.171875 20.132812 68.527344 18.929688 68.902344 17.671875 L 72.429688 17.671875 C 72.046875 18.957031 71.683594 20.164062 71.324219 21.355469 L 72.832031 21.355469 C 73.214844 20.105469 73.578125 18.925781 73.960938 17.679688 L 77.464844 17.679688 C 77.097656 18.933594 76.753906 20.109375 76.382812 21.371094 L 77.84375 21.371094 C 78.214844 20.140625 78.582031 18.921875 78.953125 17.683594 L 82.484375 17.683594 C 81.90625 19.5625 81.351562 21.363281 80.777344 23.238281 C 80.578125 23.265625 80.359375 23.324219 80.136719 23.324219 C 75.476562 23.328125 70.8125 23.335938 66.148438 23.3125 C 65.425781 23.308594 64.6875 23.230469 63.992188 23.050781 C 62.949219 22.777344 62.421875 21.867188 62.726562 20.824219 C 63.363281 18.613281 64.078125 16.425781 64.777344 14.175781 " fill-opacity="1" fill-rule="nonzero"/><path fill="#b18d32" d="M 72.058594 29.988281 L 77.515625 29.988281 C 78.066406 28.324219 76.566406 27.996094 75.25 27.996094 C 73.476562 27.996094 72 28.617188 72.058594 29.988281 M 80.296875 32.179688 L 67.710938 32.179688 C 67.863281 31.679688 68.035156 31.277344 68.101562 30.855469 C 68.65625 27.3125 71.253906 26.191406 74.300781 25.761719 C 76.160156 25.503906 78.054688 25.496094 79.84375 26.363281 C 81.207031 27.023438 81.695312 28.328125 81.082031 29.75 C 80.746094 30.523438 80.558594 31.359375 80.296875 32.179688 " fill-opacity="1" fill-rule="nonzero"/><path fill="#b18d32" d="M 30.140625 27.847656 C 29.28125 28.636719 28.484375 29.367188 27.527344 30.242188 L 31.21875 30.242188 C 30.859375 29.445312 30.539062 28.738281 30.140625 27.847656 M 35.488281 32.191406 L 22.03125 32.191406 C 22.578125 31.644531 22.957031 31.242188 23.359375 30.875 C 25.210938 29.191406 27.066406 27.515625 28.925781 25.84375 C 29.039062 25.738281 29.199219 25.628906 29.339844 25.625 C 30.421875 25.609375 31.503906 25.617188 32.640625 25.617188 C 33.582031 27.785156 34.503906 29.917969 35.488281 32.191406 " fill-opacity="1" fill-rule="nonzero"/><path fill="#b18d32" d="M 41.03125 27.863281 C 42.554688 27.875 43.554688 27.886719 44.011719 27.890625 C 44.15625 27.894531 44.273438 27.773438 44.265625 27.628906 C 44.265625 27.625 44.265625 27.625 44.265625 27.621094 C 44.257812 27.484375 44.148438 27.378906 44.015625 27.378906 L 41.242188 27.378906 C 41.183594 27.515625 41.109375 27.683594 41.03125 27.863281 M 36.070312 32.179688 C 36.804688 29.941406 37.5 27.839844 38.207031 25.695312 C 40.441406 25.695312 42.605469 25.664062 44.769531 25.714844 C 45.40625 25.726562 46.101562 25.835938 46.65625 26.128906 C 47.109375 26.367188 47.695312 26.945312 47.683594 27.355469 C 47.664062 27.933594 47.28125 28.707031 46.808594 29.011719 C 46.148438 29.4375 45.269531 29.632812 44.464844 29.699219 C 43.15625 29.808594 41.835938 29.730469 40.449219 29.730469 C 40.152344 30.554688 39.859375 31.375 39.574219 32.179688 Z M 36.070312 32.179688 " fill-opacity="1" fill-rule="nonzero"/><path fill="#b18d32" d="M 12.332031 32.175781 C 12.496094 31.503906 12.644531 30.90625 12.8125 30.230469 L 18.234375 30.230469 C 18.253906 30.136719 18.269531 30.046875 18.289062 29.953125 C 17.671875 29.773438 17.054688 29.605469 16.445312 29.417969 C 15.902344 29.25 15.351562 29.097656 14.832031 28.867188 C 13.65625 28.34375 13.503906 27.070312 14.566406 26.339844 C 15.046875 26.011719 15.65625 25.734375 16.222656 25.703125 C 17.71875 25.613281 19.222656 25.671875 20.789062 25.671875 C 20.660156 26.167969 20.523438 26.664062 20.40625 27.164062 C 20.265625 27.167969 18.566406 27.148438 18.175781 27.273438 C 18.042969 27.316406 17.902344 27.371094 17.84375 27.496094 C 17.589844 28.011719 19.921875 28.335938 20.484375 28.46875 C 20.863281 28.554688 21.242188 28.660156 21.601562 28.808594 C 22.621094 29.238281 22.804688 29.695312 22.441406 30.722656 C 22.269531 31.210938 22.121094 31.710938 21.972656 32.175781 Z M 12.332031 32.175781 " fill-opacity="1" fill-rule="nonzero"/><path fill="#b18d32" d="M 101.304688 32.347656 L 98.703125 32.347656 C 98.023438 31.007812 97.234375 29.679688 96.664062 28.261719 C 95.824219 26.183594 96.699219 24.03125 99.066406 22.898438 C 100.847656 22.046875 105.277344 20.914062 105.277344 20.914062 C 105.277344 21.636719 105.316406 22.359375 105.316406 23.125 C 104.648438 23.335938 103.953125 23.558594 103.324219 23.867188 C 102.328125 24.433594 101.246094 24.996094 100.496094 25.824219 C 99.421875 27.007812 99.9375 28.484375 100.335938 29.835938 C 100.542969 30.53125 100.871094 31.1875 101.140625 31.859375 C 101.191406 31.992188 101.230469 32.132812 101.304688 32.347656 " fill-opacity="1" fill-rule="nonzero"/><path fill="#b18d32" d="M 84.003906 20.019531 C 84.269531 19.058594 84.488281 18.265625 84.722656 17.410156 C 86.667969 17.992188 88.535156 19.023438 90.527344 17.839844 C 92.464844 16.691406 92.824219 14.71875 93.210938 12.660156 C 93.8125 12.570312 94.527344 12.460938 95.261719 12.351562 C 95.261719 12.949219 95.253906 13.5 95.195312 14.035156 C 94.992188 15.929688 94.628906 17.785156 93.617188 19.453125 C 92.507812 21.28125 90.472656 22.105469 88.300781 21.476562 C 86.898438 21.066406 85.527344 20.542969 84.003906 20.019531 " fill-opacity="1" fill-rule="nonzero"/><path fill="#b18d32" d="M 96.640625 12.355469 C 97.414062 12.488281 97.96875 12.59375 98.71875 12.722656 C 98.59375 13.433594 98.480469 14.070312 98.371094 14.707031 C 97.882812 17.46875 99.382812 18.933594 102.171875 18.40625 C 102.964844 18.257812 103.75 18.050781 104.613281 17.859375 C 104.796875 18.433594 104.980469 19.015625 105.210938 19.734375 C 104.351562 20.09375 103.539062 20.515625 102.675781 20.777344 C 101.492188 21.136719 100.285156 21.4375 99.066406 21.652344 C 97.390625 21.945312 95.761719 21.097656 95.523438 19.667969 C 95.34375 18.582031 95.476562 17.414062 95.636719 16.304688 C 95.796875 15.207031 96.171875 14.136719 96.441406 13.050781 C 96.488281 12.859375 96.546875 12.679688 96.640625 12.355469 " fill-opacity="1" fill-rule="nonzero"/><path fill="#b18d32" d="M 83.105469 23.355469 C 83.339844 22.539062 83.546875 21.820312 83.792969 20.964844 C 84.625 21.191406 85.53125 21.351562 86.363281 21.6875 C 87.242188 22.042969 88.132812 22.464844 88.882812 23.039062 C 90.382812 24.191406 90.527344 26.054688 89.152344 27.933594 C 88.074219 29.40625 86.757812 30.703125 85.542969 32.074219 C 85.496094 32.125 85.4375 32.199219 85.378906 32.203125 C 84.46875 32.273438 83.558594 32.332031 82.464844 32.402344 C 83.503906 31.144531 84.359375 30.089844 85.238281 29.058594 C 86.292969 27.816406 86.683594 26.433594 85.898438 25.371094 C 85.257812 24.210938 83.242188 23.414062 83.105469 23.355469 " fill-opacity="1" fill-rule="nonzero"/><path fill="#b18d32" d="M 66.886719 32.179688 L 57.945312 32.179688 C 58.210938 31.296875 58.46875 30.539062 58.667969 29.761719 C 59.253906 27.46875 61.050781 26.535156 63.082031 26.128906 C 64.84375 25.78125 66.675781 25.804688 68.480469 25.671875 C 68.613281 25.660156 68.753906 25.707031 68.988281 25.742188 C 68.792969 26.308594 68.613281 26.828125 68.4375 27.34375 C 66.425781 27.515625 64.28125 27.003906 62.71875 28.722656 C 62.441406 29.03125 62.371094 29.53125 62.15625 30.058594 L 67.507812 30.058594 C 67.28125 30.824219 67.085938 31.492188 66.886719 32.179688 " fill-opacity="1" fill-rule="nonzero"/><path fill="#b18d32" d="M 94.652344 32.429688 C 94.652344 32.429688 94.257812 32.152344 93.570312 31.703125 C 92.296875 30.878906 91.269531 31.957031 90.097656 32.371094 C 90.097656 32.371094 87.808594 32.328125 86.617188 32.363281 C 88.011719 30.355469 89.5 28.585938 91.738281 27.679688 C 92.996094 27.171875 94.472656 27.503906 95.363281 28.625 C 96.210938 29.695312 97.144531 31.222656 97.898438 32.367188 C 97.898438 32.367188 95.289062 32.417969 94.652344 32.429688 " fill-opacity="1" fill-rule="nonzero"/><path fill="#b18d32" d="M 51.800781 27.40625 L 48.457031 27.40625 C 48.679688 26.789062 48.867188 26.265625 49.066406 25.699219 L 55.890625 25.699219 C 55.164062 27.929688 54.46875 30.058594 53.773438 32.191406 L 50.234375 32.191406 C 50.765625 30.566406 51.265625 29.042969 51.800781 27.40625 " fill-opacity="1" fill-rule="nonzero"/><path fill="#b18d32" d="M 58.824219 27.363281 L 56.023438 27.363281 C 56.195312 26.769531 56.34375 26.253906 56.511719 25.6875 L 59.460938 25.6875 C 59.226562 26.300781 59.03125 26.820312 58.824219 27.363281 " fill-opacity="1" fill-rule="nonzero"/><path fill="#b18d32" d="M 51.28125 16.007812 C 51.507812 15.371094 51.703125 14.820312 51.894531 14.277344 L 53.882812 14.277344 C 53.6875 14.902344 53.519531 15.429688 53.339844 16.007812 Z M 51.28125 16.007812 " fill-opacity="1" fill-rule="nonzero"/><path fill="#b18d32" d="M 56.648438 14.3125 C 56.445312 14.9375 56.261719 15.492188 56.085938 16.035156 L 54.101562 16.035156 C 54.273438 15.457031 54.425781 14.9375 54.613281 14.3125 Z M 56.648438 14.3125 " fill-opacity="1" fill-rule="nonzero"/></svg>