<?xml version="1.0" encoding="utf-8"?>
<!DOCTYPE svg PUBLIC "-//W3C//DTD SVG 20010904//EN" "http://www.w3.org/TR/2001/REC-SVG-20010904/DTD/svg10.dtd">
<svg version="1.0" xmlns="http://www.w3.org/2000/svg" width="2002pt" height="819pt" viewBox="0 0 2002 819" style="" preserveAspectRatio="xMidYMid meet">
<g fill="#00BCB5FF" stroke="#00BCB5FF">
<path d="M 1393.500 100.597 C 1382.941 102.084 1370.449 104.438 1364.000 106.155 C 1303.976 122.136 1257.701 167.401 1238.943 228.482 C 1229.387 259.604 1227.938 298.382 1235.096 331.500 C 1245.416 379.249 1273.965 421.232 1313.500 446.798 C 1321.396 451.904 1337.228 460.032 1344.000 462.455 C 1369.457 471.565 1388.811 475.027 1413.970 474.969 C 1434.197 474.922 1449.951 472.794 1457.426 469.099 C 1487.853 454.057 1486.103 411.440 1454.500 397.837 C 1452.279 396.881 1443.841 396.539 1422.000 396.521 C 1394.154 396.497 1392.023 396.364 1384.000 394.145 C 1346.090 383.663 1320.327 355.993 1310.774 315.500 C 1309.004 307.997 1308.648 303.339 1308.636 287.500 C 1308.619 266.478 1309.948 258.538 1316.169 242.500 C 1333.980 196.581 1378.193 171.869 1428.909 179.486 C 1461.442 184.373 1487.845 203.789 1503.005 233.976 C 1506.837 241.608 1509.486 249.323 1512.281 261.000 C 1514.221 269.104 1514.344 273.601 1514.916 357.500 C 1515.589 456.136 1515.022 449.049 1523.103 459.753 C 1537.086 478.273 1564.978 480.075 1581.526 463.526 C 1586.825 458.228 1589.911 452.414 1591.628 444.500 C 1593.556 435.612 1593.494 288.305 1591.554 268.000 C 1587.005 220.402 1568.114 180.334 1535.539 149.191 C 1509.696 124.485 1481.052 109.989 1444.000 102.864 C 1433.914 100.925 1401.501 99.469 1393.500 100.597 "/></g>
<g fill="#00BCB5FF" stroke="#00BCB5FF">
<path d="M 515.500 100.623 C 497.798 105.194 487.019 116.490 483.789 133.857 C 481.767 144.734 482.834 147.322 521.682 225.729 C 555.794 294.579 603.169 390.333 612.728 409.750 L 617.282 419.000 612.235 429.250 C 609.459 434.887 596.842 460.425 584.199 486.000 C 571.555 511.575 560.488 534.944 559.605 537.932 C 553.284 559.324 567.961 581.953 590.926 586.223 C 598.307 587.596 606.007 586.215 614.697 581.961 C 626.744 576.063 621.765 585.104 696.997 432.500 C 705.673 414.900 722.327 381.150 734.006 357.500 C 826.124 170.951 833.507 155.909 835.434 150.837 C 838.195 143.568 837.316 130.323 833.558 122.568 C 826.222 107.433 808.393 97.977 792.672 100.884 C 782.302 102.800 773.949 107.929 767.627 116.261 C 765.231 119.420 755.713 138.182 731.235 188.000 C 694.285 263.205 661.063 330.000 660.609 330.000 C 660.323 330.000 651.792 313.238 641.652 292.750 C 550.812 109.213 554.778 116.935 548.284 110.923 C 544.426 107.352 540.228 104.596 536.408 103.128 C 530.654 100.917 519.525 99.584 515.500 100.623 "/></g>
<g fill="#00BCB5FF" stroke="#00BCB5FF">
<path d="M 1002.000 100.598 C 974.703 105.453 965.885 107.888 950.500 114.820 C 919.502 128.785 892.189 153.597 874.346 184.000 C 860.927 206.865 853.378 229.020 848.961 258.500 C 847.147 270.604 847.013 277.402 847.007 357.093 C 847.000 439.214 847.079 442.916 848.940 448.327 C 853.764 462.346 864.425 471.370 879.431 474.135 C 900.794 478.072 920.830 463.003 923.918 440.678 C 924.619 435.611 925.000 405.049 925.000 353.921 C 925.000 266.032 925.148 263.555 931.523 244.500 C 945.536 202.618 977.925 177.996 1019.000 178.002 C 1044.894 178.005 1065.864 186.614 1083.429 204.453 C 1097.409 218.651 1106.773 237.174 1111.766 260.500 C 1113.003 266.280 1113.374 282.930 1113.892 356.000 L 1114.519 444.500 1116.959 450.408 C 1123.665 466.649 1142.469 477.311 1158.986 474.240 C 1172.512 471.724 1182.722 464.025 1188.388 452.067 L 1191.500 445.500 1191.497 355.000 C 1191.494 264.688 1191.490 264.475 1189.192 252.500 C 1184.645 228.799 1179.189 212.139 1170.195 194.500 C 1155.465 165.608 1133.732 141.471 1108.266 125.718 C 1080.193 108.353 1055.292 101.065 1022.000 100.467 C 1012.375 100.295 1003.375 100.353 1002.000 100.598 "/></g>
<g fill="#00BCB5FF" stroke="#00BCB5FF">
<path d="M 1754.000 99.949 C 1737.564 101.246 1715.292 107.265 1701.904 114.026 C 1687.349 121.378 1671.118 134.941 1662.112 147.279 C 1653.821 158.638 1648.002 172.176 1644.481 188.296 C 1642.133 199.049 1642.890 227.958 1645.809 239.000 C 1650.459 256.590 1657.134 268.120 1669.631 280.150 C 1685.805 295.721 1709.781 306.667 1753.578 318.476 C 1781.027 325.877 1784.918 327.009 1797.262 331.184 C 1828.954 341.902 1839.341 351.607 1839.341 370.500 C 1839.341 388.025 1828.861 399.342 1807.437 404.953 C 1796.482 407.823 1770.656 407.846 1757.166 404.998 C 1734.075 400.125 1717.438 392.974 1695.500 378.496 C 1678.839 367.501 1679.072 367.590 1667.000 367.552 C 1658.298 367.524 1655.693 367.889 1651.788 369.686 C 1640.820 374.732 1633.903 383.392 1631.316 395.317 C 1629.845 402.093 1629.852 403.226 1631.400 410.078 C 1634.011 421.631 1638.153 426.901 1651.879 436.137 C 1689.098 461.181 1735.711 475.241 1782.000 475.388 C 1812.896 475.485 1837.182 470.346 1859.532 458.979 C 1888.644 444.173 1906.829 420.545 1913.959 388.261 C 1917.102 374.032 1916.893 348.654 1913.526 335.696 C 1908.926 317.993 1901.999 305.984 1889.639 294.288 C 1871.089 276.733 1846.167 265.010 1803.000 253.535 C 1767.782 244.173 1748.613 238.044 1740.000 233.391 C 1730.328 228.166 1723.663 221.640 1721.151 214.935 C 1719.333 210.082 1718.788 201.340 1719.953 195.727 C 1723.081 180.659 1737.075 170.793 1759.187 168.066 C 1783.405 165.079 1813.135 173.056 1845.000 191.091 C 1854.826 196.652 1860.978 198.334 1869.379 197.758 C 1891.146 196.266 1905.641 178.515 1902.824 156.800 C 1901.352 145.451 1894.399 136.241 1881.707 128.829 C 1850.005 110.314 1816.316 100.744 1779.000 99.652 C 1770.475 99.403 1759.225 99.536 1754.000 99.949 "/></g>
<g fill="#00BCB5FF" stroke="#00BCB5FF">
<path d="M 230.500 10.479 C 157.810 19.418 107.823 65.130 91.602 137.500 C 86.247 161.390 86.572 151.365 86.237 303.000 L 85.927 443.500 88.214 449.424 C 89.655 453.160 92.473 457.495 95.841 461.157 C 114.617 481.572 147.256 476.626 159.561 451.500 L 162.500 445.500 163.074 310.000 C 163.685 165.891 163.580 168.986 168.467 150.126 C 176.922 117.497 195.982 97.708 226.500 89.872 C 234.807 87.739 237.746 87.549 264.681 87.407 L 293.862 87.253 300.360 84.212 C 309.200 80.076 315.237 74.248 319.490 65.748 C 322.747 59.237 323.000 58.062 323.000 49.455 C 323.000 37.459 320.720 31.241 313.323 23.068 C 305.092 13.972 298.724 11.231 283.000 10.013 C 266.539 8.739 242.952 8.948 230.500 10.479 "/></g>
<g fill="#00BCB5FF" stroke="#00BCB5FF">
<path d="M 389.500 13.203 C 376.164 17.913 366.996 28.244 364.123 41.799 C 362.539 49.272 362.525 435.633 364.109 443.201 C 366.625 455.225 374.812 465.582 386.000 470.889 C 390.852 473.191 392.738 473.497 402.000 473.484 C 410.753 473.472 413.319 473.095 417.420 471.216 C 427.837 466.444 435.230 458.190 438.933 447.199 C 440.995 441.079 441.000 440.558 441.000 242.688 C 441.000 46.246 440.980 44.256 438.979 38.407 C 433.290 21.778 418.454 10.926 401.568 11.042 C 398.042 11.066 392.987 11.971 389.500 13.203 "/></g>
<g fill="#00BCB5FF" stroke="#00BCB5FF">
<path d="M 1746.695 590.863 C 1740.220 595.132 1740.530 592.337 1740.201 649.500 C 1740.036 678.100 1740.171 702.972 1740.500 704.771 C 1740.829 706.571 1742.473 709.608 1744.153 711.521 C 1746.898 714.648 1747.729 715.000 1752.364 715.000 C 1758.861 715.000 1762.087 712.297 1764.540 704.799 C 1768.087 693.958 1773.649 685.313 1783.916 674.683 C 1798.439 659.645 1813.397 652.282 1833.906 650.077 C 1854.986 647.811 1874.186 652.091 1883.149 661.053 C 1890.704 668.608 1891.312 671.625 1891.762 703.750 L 1892.143 731.000 1788.572 731.000 C 1731.607 731.000 1685.000 730.801 1685.000 730.557 C 1685.000 730.313 1686.350 726.084 1688.000 721.159 L 1691.000 712.205 1690.968 682.852 C 1690.934 651.062 1691.027 651.636 1685.266 647.837 C 1683.745 646.834 1681.150 646.012 1679.500 646.010 C 1676.077 646.007 1670.593 649.024 1669.163 651.696 C 1668.632 652.688 1668.000 665.650 1667.758 680.500 C 1667.396 702.707 1667.004 708.476 1665.551 713.000 C 1663.084 720.677 1659.266 725.850 1654.015 728.628 C 1649.844 730.834 1648.429 731.000 1633.765 731.000 L 1618.000 731.000 1618.000 693.047 C 1618.000 668.557 1617.626 654.273 1616.945 652.779 C 1615.479 649.561 1609.955 645.999 1606.438 646.004 C 1602.855 646.008 1597.594 649.075 1595.814 652.196 C 1594.796 653.981 1594.387 665.870 1594.000 705.000 L 1593.500 755.500 1590.139 762.332 C 1585.606 771.546 1576.971 780.582 1568.002 785.499 C 1563.627 787.897 1560.277 790.498 1559.414 792.166 C 1556.269 798.248 1558.623 805.496 1564.682 808.385 C 1569.062 810.474 1570.854 810.420 1576.424 808.033 C 1586.908 803.538 1598.387 793.648 1605.961 782.583 C 1609.656 777.183 1616.000 762.915 1616.000 760.003 C 1616.000 758.991 1616.273 757.452 1616.607 756.582 C 1617.157 755.150 1630.893 754.999 1761.857 754.985 C 1874.663 754.974 1907.029 754.699 1908.904 753.735 C 1910.226 753.056 1912.251 751.230 1913.404 749.678 C 1915.414 746.973 1915.512 745.545 1915.790 714.853 C 1916.104 680.254 1915.182 670.056 1910.798 659.642 C 1905.192 646.324 1894.717 636.315 1880.853 631.029 C 1872.300 627.768 1855.870 625.000 1845.070 625.000 C 1834.074 625.000 1816.591 627.773 1807.500 630.960 C 1794.189 635.625 1779.376 644.832 1770.547 653.928 C 1768.373 656.167 1766.235 658.000 1765.797 658.000 C 1765.359 658.000 1765.000 644.936 1765.000 628.968 C 1765.000 596.694 1764.657 594.590 1758.810 591.026 C 1754.689 588.513 1750.347 588.455 1746.695 590.863 "/></g>
<g fill="#00BCB5FF" stroke="#00BCB5FF">
<path d="M 972.789 648.197 C 965.898 652.192 966.000 651.195 966.000 714.520 L 966.000 771.000 937.710 771.000 C 915.520 771.000 908.151 770.669 903.535 769.467 C 890.964 766.193 882.253 759.040 876.896 747.592 C 871.880 736.872 871.003 728.413 871.001 690.718 C 871.000 653.505 870.714 651.455 865.128 648.566 C 863.462 647.705 860.292 647.000 858.083 647.000 C 854.806 647.000 853.405 647.662 850.473 650.594 L 846.879 654.188 847.264 694.844 C 847.625 732.990 847.785 735.993 849.850 743.481 C 853.709 757.467 859.272 767.500 867.892 776.020 C 876.452 784.481 882.180 787.896 894.211 791.709 C 902.446 794.320 902.751 794.339 941.161 794.757 C 992.500 795.316 990.000 796.551 990.000 770.639 L 990.000 755.088 1050.250 754.794 C 1107.033 754.517 1110.759 754.390 1115.000 752.583 C 1126.030 747.882 1134.359 739.808 1140.004 728.341 C 1145.153 717.881 1145.963 711.562 1145.983 681.700 C 1146.002 651.874 1145.753 650.534 1139.643 647.635 C 1135.179 645.517 1133.204 645.578 1129.304 647.956 C 1123.261 651.641 1123.205 651.929 1122.761 682.000 C 1122.379 707.763 1122.209 709.870 1120.062 715.365 C 1117.296 722.443 1111.905 728.113 1106.360 729.774 C 1103.717 730.566 1095.139 731.000 1082.134 731.000 C 1059.757 731.000 1060.587 731.303 1063.560 724.218 C 1067.153 715.657 1068.000 707.441 1067.996 681.185 C 1067.993 657.309 1067.852 655.270 1066.003 652.237 C 1064.909 650.442 1062.417 648.213 1060.466 647.282 C 1057.276 645.761 1056.501 645.737 1052.799 647.045 C 1050.534 647.845 1047.740 649.769 1046.591 651.320 C 1044.621 653.976 1044.468 655.766 1043.947 682.320 C 1043.341 713.191 1042.882 715.762 1036.555 723.691 C 1031.519 730.002 1027.826 730.953 1008.250 730.978 L 991.000 731.000 991.000 693.734 C 991.000 652.058 990.926 651.575 983.938 647.827 C 979.557 645.478 977.354 645.551 972.789 648.197 "/></g>
<g fill="#00BCB5FF" stroke="#00BCB5FF">
<path d="M 1386.417 650.387 L 1382.500 653.775 1382.500 693.137 C 1382.500 730.946 1382.592 732.872 1384.822 741.931 C 1392.816 774.396 1412.305 791.516 1445.211 794.978 C 1450.551 795.540 1468.551 795.990 1485.211 795.978 C 1512.525 795.958 1515.900 795.774 1519.576 794.105 C 1527.299 790.597 1527.000 793.537 1527.000 721.000 C 1527.000 665.703 1526.790 656.359 1525.484 653.607 C 1522.170 646.623 1512.571 644.731 1506.766 649.918 L 1503.500 652.835 1503.227 711.969 L 1502.953 771.102 1470.727 770.797 C 1439.720 770.504 1438.282 770.405 1432.753 768.176 C 1424.393 764.805 1416.753 757.398 1412.609 748.646 C 1407.003 736.806 1406.000 727.796 1406.000 689.274 C 1406.000 652.637 1405.836 651.518 1400.033 648.517 C 1395.134 645.984 1390.824 646.576 1386.417 650.387 "/></g>
<g fill="#00BCB5FF" stroke="#00BCB5FF">
<path d="M 1177.153 592.479 C 1175.473 594.392 1173.808 597.507 1173.452 599.402 C 1173.097 601.296 1173.025 622.568 1173.293 646.673 C 1173.813 693.524 1174.280 698.644 1179.271 712.242 C 1186.550 732.071 1200.755 745.429 1221.363 751.823 C 1229.340 754.299 1230.245 754.356 1267.500 754.750 L 1305.500 755.152 1309.000 752.791 C 1311.031 751.422 1313.001 748.976 1313.694 746.965 C 1314.542 744.502 1314.903 731.141 1314.944 700.770 C 1315.006 653.798 1314.813 652.093 1309.066 648.698 C 1303.503 645.412 1295.703 647.173 1292.709 652.392 C 1291.848 653.894 1291.356 665.426 1291.000 692.500 L 1290.500 730.500 1265.000 730.810 C 1244.097 731.064 1238.012 730.815 1231.247 729.432 C 1215.566 726.225 1205.345 716.422 1200.224 699.679 C 1197.738 691.549 1197.720 691.211 1197.251 643.540 L 1196.779 595.579 1193.490 592.290 C 1190.648 589.448 1189.520 589.000 1185.204 589.000 C 1180.751 589.000 1179.875 589.379 1177.153 592.479 "/></g>
<g fill="#00BCB5FF" stroke="#00BCB5FF">
<path d="M 217.344 188.977 C 207.259 191.129 195.941 200.518 191.355 210.536 C 188.054 217.745 187.159 229.157 189.267 237.147 C 194.421 256.684 215.766 269.506 234.953 264.591 C 251.364 260.386 261.904 249.078 264.921 232.438 C 267.812 216.491 258.013 198.473 242.613 191.423 C 236.551 188.648 224.396 187.471 217.344 188.977 "/></g>
<g fill="#00BCB5FF" stroke="#00BCB5FF">
<path d="M 1554.567 590.946 C 1548.846 594.718 1549.074 591.357 1549.035 672.734 L 1549.000 747.968 1551.782 751.083 C 1553.924 753.479 1555.647 754.319 1559.263 754.726 C 1564.744 755.344 1568.009 753.672 1571.044 748.696 C 1572.929 745.605 1572.993 743.093 1572.993 672.000 C 1572.993 600.862 1572.930 598.397 1571.040 595.299 C 1567.365 589.270 1560.044 587.336 1554.567 590.946 "/></g>
<g fill="#00BCB5FF" stroke="#00BCB5FF">
<path d="M 1296.382 588.982 C 1293.344 590.210 1290.000 596.138 1290.000 600.297 C 1290.000 602.949 1290.839 604.747 1293.288 607.344 C 1299.264 613.680 1307.622 612.948 1312.040 605.701 C 1318.214 595.576 1307.741 584.394 1296.382 588.982 "/></g>
<g fill="#00BCB5FF" stroke="#00BCB5FF">
<path d="M 1681.014 778.698 C 1676.824 780.864 1675.024 784.123 1675.047 789.500 C 1675.074 795.975 1680.434 800.982 1687.350 800.993 C 1690.400 800.999 1691.907 800.293 1694.600 797.600 C 1697.575 794.625 1698.000 793.565 1698.000 789.116 C 1698.000 784.982 1697.486 783.456 1695.250 780.954 C 1691.721 777.004 1686.033 776.103 1681.014 778.698 "/></g>
<g fill="#00BCB5FF" stroke="#00BCB5FF">
<path d="M 1645.030 778.225 C 1641.836 779.912 1638.000 785.625 1638.000 788.698 C 1638.000 794.687 1644.020 801.000 1649.731 801.000 C 1656.560 801.000 1662.000 795.494 1662.000 788.581 C 1662.000 780.878 1651.799 774.653 1645.030 778.225 "/></g>
<g fill="#00BCB5FF" stroke="#00BCB5FF">
<path d="M 1454.418 588.918 C 1447.250 591.994 1444.578 602.305 1449.637 607.365 C 1453.318 611.045 1459.031 612.644 1462.849 611.062 C 1468.118 608.880 1470.500 605.417 1470.500 599.939 C 1470.500 595.794 1470.023 594.561 1467.407 591.945 C 1464.088 588.627 1458.261 587.269 1454.418 588.918 "/></g>
</svg>
