<?xml version="1.0" encoding="utf-8"?>
<!DOCTYPE svg PUBLIC "-//W3C//DTD SVG 20010904//EN" "http://www.w3.org/TR/2001/REC-SVG-20010904/DTD/svg10.dtd">
<svg version="1.0" xmlns="http://www.w3.org/2000/svg" width="2002pt" height="680pt" viewBox="0 0 2002 680" style="" preserveAspectRatio="xMidYMid meet">
<g fill="#51296DFF" stroke="#51296DFF">
<path d="M 1373.655 268.829 C 1372.161 270.480 1372.000 275.570 1372.000 321.162 C 1372.000 348.940 1371.718 371.949 1371.373 372.294 C 1371.027 372.639 1369.547 371.138 1368.083 368.958 C 1364.120 363.056 1354.326 353.339 1347.251 348.287 C 1331.649 337.148 1307.491 332.531 1285.860 336.555 C 1256.216 342.070 1233.584 359.607 1218.826 388.500 C 1207.041 411.570 1202.091 434.567 1202.034 466.500 C 1201.981 496.418 1205.867 515.417 1216.576 537.597 C 1231.405 568.312 1247.945 581.134 1283.020 589.107 C 1292.419 591.243 1295.769 591.482 1315.500 591.419 C 1335.816 591.354 1338.313 591.147 1348.123 588.703 C 1378.187 581.213 1402.903 568.004 1414.498 553.232 C 1422.490 543.050 1427.370 532.237 1431.079 516.500 C 1434.433 502.263 1435.121 477.311 1434.803 381.500 L 1434.500 290.500 1432.264 286.000 C 1431.034 283.525 1428.559 279.918 1426.764 277.984 C 1418.285 268.851 1412.255 267.000 1390.973 267.000 C 1377.069 267.000 1375.124 267.205 1373.655 268.829 M 1331.550 392.030 C 1339.438 393.761 1349.125 399.257 1354.659 405.141 C 1360.900 411.776 1366.347 423.354 1370.058 437.874 C 1372.004 445.488 1372.154 448.123 1371.716 466.874 C 1371.226 487.848 1370.568 492.073 1365.687 505.571 C 1357.528 528.134 1342.387 539.011 1319.161 538.992 C 1303.716 538.980 1291.693 534.044 1282.605 523.984 C 1278.068 518.963 1270.925 503.901 1267.911 493.000 C 1265.793 485.341 1265.558 482.421 1265.536 463.500 C 1265.513 444.361 1265.719 441.791 1267.858 434.500 C 1277.724 400.872 1301.031 385.332 1331.550 392.030 "/></g>
<g fill="#51296DFF" stroke="#51296DFF">
<path d="M 1544.500 337.504 C 1507.875 343.483 1478.847 368.480 1464.612 406.300 C 1457.220 425.936 1455.625 438.027 1456.287 469.380 C 1456.946 500.592 1459.180 511.003 1470.046 533.500 C 1476.890 547.671 1482.211 555.325 1491.595 564.500 C 1504.085 576.711 1522.590 586.753 1539.746 590.628 C 1549.139 592.751 1576.873 593.564 1588.324 592.053 C 1626.350 587.037 1656.478 566.361 1672.321 534.410 C 1674.205 530.609 1676.521 525.121 1677.466 522.214 C 1680.269 513.594 1681.082 513.832 1650.079 514.192 C 1619.778 514.543 1620.397 514.385 1611.293 524.118 C 1600.791 535.345 1591.860 539.000 1574.927 539.000 C 1561.489 539.000 1553.447 537.056 1545.727 531.943 C 1534.347 524.405 1524.698 505.176 1523.846 488.339 L 1523.500 481.500 1603.500 481.250 C 1677.301 481.020 1683.597 480.869 1684.750 479.309 C 1686.483 476.964 1686.370 458.146 1684.541 444.436 C 1681.345 420.491 1673.502 398.577 1661.478 380.000 C 1647.356 358.182 1621.362 342.008 1593.000 337.391 C 1582.418 335.669 1555.357 335.732 1544.500 337.504 M 1589.000 392.290 C 1598.621 396.247 1606.272 403.608 1610.843 413.307 C 1614.044 420.098 1617.000 431.505 1617.000 437.065 L 1617.000 440.000 1569.000 440.000 L 1521.000 440.000 1521.000 436.562 C 1521.000 427.286 1525.759 414.184 1532.427 405.100 C 1543.733 389.697 1568.861 384.008 1589.000 392.290 "/></g>
<g fill="#51296DFF" stroke="#51296DFF">
<path d="M 1780.500 337.531 C 1757.306 341.394 1738.160 351.168 1724.744 365.994 C 1714.231 377.611 1705.244 401.345 1710.582 403.393 C 1711.452 403.727 1725.065 404.000 1740.834 404.000 L 1769.504 404.000 1773.002 399.250 C 1780.394 389.213 1799.274 384.839 1821.402 388.037 C 1842.133 391.034 1850.000 397.052 1850.000 409.915 C 1850.000 415.161 1846.388 421.389 1841.481 424.605 C 1836.780 427.685 1821.614 432.135 1811.000 433.549 C 1787.522 436.678 1765.206 440.665 1756.330 443.319 C 1740.507 448.050 1722.796 458.731 1715.687 467.831 C 1705.092 481.393 1700.822 496.358 1701.503 517.542 C 1702.142 537.419 1706.127 550.231 1715.747 563.336 C 1723.226 573.525 1737.647 582.824 1755.000 588.647 L 1763.500 591.500 1792.500 591.424 C 1817.945 591.356 1822.849 591.082 1832.500 589.189 C 1877.352 580.387 1903.044 554.507 1909.588 511.538 C 1911.276 500.450 1911.583 410.588 1909.974 398.322 C 1907.982 383.139 1901.324 369.429 1891.297 359.865 C 1880.448 349.517 1857.220 340.166 1834.678 337.073 C 1823.982 335.606 1790.350 335.890 1780.500 337.531 M 1849.348 470.750 C 1850.666 484.698 1850.112 498.427 1847.950 505.426 C 1840.703 528.889 1820.767 543.000 1794.868 543.000 C 1776.216 543.000 1765.031 535.899 1760.999 521.497 C 1757.965 510.660 1762.199 496.249 1770.388 489.538 C 1776.992 484.127 1784.031 481.488 1803.500 477.128 C 1819.084 473.637 1844.158 466.176 1845.791 464.542 C 1847.655 462.678 1848.770 464.624 1849.348 470.750 "/></g>
<g fill="#51296DFF" stroke="#51296DFF">
<path d="M 1049.795 337.501 C 1029.313 340.947 1009.350 350.751 996.666 363.593 C 988.368 371.994 981.146 385.540 979.086 396.569 C 977.645 404.285 976.500 404.000 1008.968 404.000 C 1024.846 404.000 1038.548 403.727 1039.418 403.393 C 1040.288 403.059 1041.000 402.216 1041.000 401.520 C 1041.000 398.636 1049.807 392.140 1056.651 389.976 C 1073.200 384.745 1102.209 387.316 1112.953 394.966 C 1116.522 397.508 1120.007 404.503 1119.978 409.066 C 1119.931 416.346 1113.538 425.120 1107.173 426.638 C 1105.703 426.989 1104.050 427.613 1103.500 428.024 C 1101.708 429.366 1086.703 432.857 1078.000 433.958 C 1044.586 438.185 1025.290 442.591 1011.093 449.237 C 991.290 458.508 980.610 469.862 974.342 488.308 C 971.694 496.100 971.561 497.378 971.603 514.500 C 971.642 530.035 971.941 533.421 973.784 539.225 C 982.129 565.503 996.940 579.677 1025.500 588.716 C 1032.507 590.933 1035.797 591.307 1052.000 591.727 C 1082.578 592.518 1103.854 590.225 1120.500 584.342 C 1151.954 573.226 1169.980 552.799 1178.011 519.171 C 1179.879 511.349 1179.999 507.304 1179.987 452.671 C 1179.975 397.049 1179.885 394.215 1177.946 388.000 C 1173.866 374.929 1166.865 364.123 1157.796 356.902 C 1146.898 348.224 1124.164 339.736 1104.678 337.070 C 1094.089 335.621 1059.346 335.894 1049.795 337.501 M 1119.250 479.250 C 1120.010 501.454 1117.945 510.421 1109.396 522.034 C 1099.414 535.594 1083.657 543.000 1064.791 543.000 C 1048.687 543.000 1037.976 537.612 1032.588 526.801 C 1030.441 522.492 1030.000 520.220 1030.000 513.463 C 1030.000 506.375 1030.398 504.524 1033.068 499.179 C 1038.443 488.423 1046.374 483.337 1064.000 479.341 C 1090.394 473.358 1108.306 468.238 1113.601 465.163 C 1118.451 462.347 1118.692 462.949 1119.250 479.250 "/></g>
<g fill="#51296DFF" stroke="#51296DFF">
<path d="M 735.407 343.513 C 734.739 346.175 735.568 349.854 738.898 359.000 C 742.268 368.259 752.139 396.259 753.528 400.500 C 754.248 402.700 756.712 409.675 759.004 416.000 C 761.295 422.325 763.773 429.300 764.509 431.500 C 765.246 433.700 768.406 442.700 771.533 451.500 C 774.660 460.300 777.807 469.300 778.528 471.500 C 779.248 473.700 781.712 480.675 784.004 487.000 C 786.295 493.325 788.773 500.300 789.509 502.500 C 790.246 504.700 793.406 513.700 796.533 522.500 C 799.660 531.300 802.807 540.300 803.528 542.500 C 804.248 544.700 806.698 551.675 808.972 558.000 C 820.873 591.100 821.235 592.314 821.348 599.500 C 821.523 610.593 818.137 615.407 806.034 621.269 C 799.862 624.258 798.696 624.463 785.000 624.967 C 777.025 625.260 769.938 625.864 769.250 626.309 C 768.306 626.920 768.000 633.097 768.000 651.524 C 768.000 674.630 768.103 675.985 769.934 676.965 C 771.080 677.578 779.745 677.993 791.184 677.982 C 818.071 677.957 829.663 675.949 845.115 668.639 C 853.775 664.542 865.453 650.187 872.009 635.578 C 873.509 632.235 880.263 613.075 887.016 593.000 C 893.770 572.925 908.474 529.275 919.692 496.000 C 930.911 462.725 943.649 424.925 947.999 412.000 C 952.350 399.075 959.106 379.070 963.012 367.545 C 970.432 345.653 970.869 342.507 966.642 341.446 C 965.361 341.125 954.005 341.005 941.407 341.181 L 918.500 341.500 913.141 344.468 C 903.395 349.866 901.237 353.524 895.122 375.000 C 893.948 379.125 891.415 388.013 889.493 394.750 C 887.572 401.488 884.429 412.513 882.510 419.250 C 880.590 425.988 878.274 433.975 877.363 437.000 C 876.453 440.025 875.376 443.850 874.971 445.500 C 874.566 447.150 869.907 463.463 864.617 481.752 C 859.328 500.041 855.000 515.318 855.000 515.702 C 855.000 518.401 852.805 512.905 850.526 504.500 C 849.035 499.000 846.981 491.800 845.961 488.500 C 844.942 485.200 841.575 473.500 838.478 462.500 C 835.381 451.500 831.527 438.000 829.912 432.500 C 828.298 427.000 826.079 419.350 824.980 415.500 C 823.882 411.650 820.915 401.300 818.387 392.500 C 815.858 383.700 812.664 372.450 811.289 367.500 C 809.913 362.550 807.596 354.675 806.140 350.000 L 803.492 341.500 769.768 341.237 L 736.045 340.973 735.407 343.513 "/></g>
<g fill="#CEDF00FF" stroke="#CEDF00FF">
<path d="M 348.500 340.148 C 341.350 340.619 324.700 341.886 311.500 342.964 C 223.842 350.124 181.823 352.307 105.634 353.657 L 67.769 354.329 64.928 360.661 C 56.828 378.713 52.277 406.284 54.905 421.375 C 57.362 435.483 61.556 442.595 70.110 447.158 C 74.220 449.350 75.522 449.493 90.500 449.387 C 99.300 449.325 111.450 448.567 117.500 447.702 C 123.550 446.838 130.975 445.850 134.000 445.508 C 137.025 445.166 144.450 444.247 150.500 443.467 C 195.331 437.684 244.774 432.754 275.500 431.003 C 284.850 430.470 300.375 429.539 310.000 428.935 C 319.625 428.330 345.500 427.535 367.500 427.168 L 407.500 426.500 411.190 419.500 C 418.656 405.334 423.036 388.260 423.119 373.001 C 423.171 363.461 422.869 361.397 420.746 356.785 C 416.571 347.716 409.605 342.328 399.201 340.123 C 393.214 338.854 367.978 338.867 348.500 340.148 "/></g>
<g fill="#CEDF00FF" stroke="#CEDF00FF">
<path d="M 296.000 475.541 C 284.725 476.229 267.400 477.487 257.500 478.337 C 178.764 485.093 129.152 487.663 57.819 488.681 L 15.138 489.290 12.185 495.895 C 5.834 510.103 1.885 528.600 1.702 545.000 C 1.495 563.611 6.037 575.679 15.428 581.464 L 20.356 584.500 37.928 584.423 C 50.031 584.370 60.635 583.658 72.000 582.134 C 103.076 577.967 132.374 574.461 160.500 571.544 C 213.014 566.096 286.465 562.078 334.519 562.023 L 354.538 562.000 357.694 556.250 C 363.867 545.004 368.386 530.195 370.030 515.831 C 372.231 496.592 367.520 484.922 354.960 478.500 C 345.639 473.735 334.646 473.183 296.000 475.541 "/></g>
<g fill="#51296DFF" stroke="#51296DFF">
<path d="M 1873.619 64.016 C 1870.141 65.080 1866.397 68.436 1864.155 72.500 C 1862.690 75.156 1862.443 81.804 1862.000 130.500 C 1861.518 183.509 1861.428 185.598 1859.500 188.220 C 1856.463 192.349 1852.258 193.291 1838.977 192.818 C 1828.516 192.445 1826.805 192.125 1823.618 189.949 C 1821.645 188.602 1819.687 186.825 1819.266 186.000 C 1818.845 185.175 1818.275 171.000 1818.000 154.500 L 1817.500 124.500 1806.500 124.500 C 1794.104 124.500 1791.888 125.418 1788.068 132.136 C 1786.144 135.519 1786.000 137.368 1785.994 158.636 C 1785.989 182.559 1785.359 187.461 1781.888 190.600 C 1780.000 192.307 1778.090 192.500 1763.069 192.500 C 1746.536 192.500 1746.305 192.470 1742.228 189.771 C 1739.259 187.805 1737.812 185.986 1737.058 183.271 C 1736.445 181.063 1736.009 167.997 1736.006 151.750 L 1736.000 124.000 1726.401 124.000 C 1714.935 124.000 1711.029 125.488 1707.161 131.331 L 1704.500 135.350 1704.000 182.925 C 1703.524 228.208 1703.404 230.664 1701.500 233.902 C 1698.596 238.843 1693.193 241.262 1683.854 241.802 L 1676.000 242.257 1676.000 255.128 L 1676.000 268.000 1688.977 268.000 C 1703.662 268.000 1709.096 266.487 1717.793 259.975 C 1726.146 253.721 1733.000 235.682 1733.000 219.953 L 1733.000 213.822 1735.971 216.322 C 1740.447 220.088 1747.075 221.002 1769.799 220.983 C 1796.428 220.960 1802.952 219.778 1808.134 214.032 L 1811.768 210.004 1815.662 213.897 C 1821.866 220.101 1826.497 221.000 1852.246 221.000 C 1872.303 221.000 1874.539 220.824 1879.041 218.887 L 1883.952 216.774 1887.533 218.887 C 1891.001 220.933 1892.264 221.000 1927.447 221.000 C 1974.107 221.000 1982.326 219.678 1990.638 210.838 C 1992.364 209.002 1994.529 206.006 1995.449 204.181 C 1999.603 195.942 2001.761 169.117 1999.164 158.000 C 1996.862 148.147 1991.107 137.002 1985.691 131.907 C 1981.986 128.422 1971.000 122.736 1964.079 120.722 C 1950.471 116.762 1926.239 118.786 1907.000 125.489 C 1901.225 127.501 1895.719 129.390 1894.764 129.687 C 1893.143 130.190 1893.010 128.010 1892.764 96.863 L 1892.500 63.500 1884.500 63.317 C 1880.100 63.217 1875.204 63.531 1873.619 64.016 M 1955.748 148.513 C 1964.091 153.806 1967.057 160.153 1966.923 172.432 C 1966.804 183.396 1965.343 187.065 1960.030 189.750 C 1955.694 191.940 1954.749 192.000 1924.288 192.000 L 1893.000 192.000 1893.000 174.073 L 1893.000 156.145 1900.750 153.201 C 1907.514 150.631 1916.732 148.121 1925.000 146.598 C 1926.375 146.345 1933.236 146.280 1940.248 146.452 C 1950.268 146.700 1953.584 147.140 1955.748 148.513 "/></g>
<g fill="#51296DFF" stroke="#51296DFF">
<path d="M 563.000 269.510 C 550.808 272.141 537.706 278.653 531.211 285.309 C 525.500 291.162 520.362 300.131 517.465 309.302 L 515.000 317.103 515.000 451.352 C 515.000 554.434 515.279 585.879 516.200 586.800 C 517.078 587.678 525.200 588.000 546.500 588.000 C 567.800 588.000 575.922 587.678 576.800 586.800 C 577.716 585.884 578.000 563.756 578.000 493.300 L 578.000 401.000 584.250 400.988 C 597.214 400.964 606.512 396.398 612.997 386.871 C 616.408 381.861 616.503 381.454 616.856 370.350 C 617.110 362.337 616.852 358.527 615.986 357.483 C 614.978 356.268 611.342 356.000 595.878 356.000 L 577.000 356.000 577.000 343.386 C 577.000 332.252 577.257 330.314 579.195 326.867 C 582.159 321.594 587.593 320.000 602.610 320.000 C 611.501 320.000 614.186 319.671 615.429 318.429 C 616.763 317.094 617.000 313.502 617.000 294.620 C 617.000 277.366 616.693 271.962 615.630 270.508 C 614.371 268.787 612.431 268.612 591.880 268.371 C 575.571 268.179 567.737 268.488 563.000 269.510 "/></g>
<g fill="#51296DFF" stroke="#51296DFF">
<path d="M 644.081 270.849 C 643.320 272.271 643.000 319.139 643.000 429.279 C 643.000 579.537 643.072 585.755 644.829 587.345 C 646.441 588.804 650.058 589.000 675.394 589.000 C 693.291 589.000 704.861 588.610 706.066 587.965 C 707.965 586.949 708.000 584.243 708.000 440.143 C 708.000 276.166 708.542 288.306 700.826 279.540 C 698.613 277.025 694.709 273.738 692.151 272.234 C 687.540 269.524 687.318 269.497 666.331 269.165 C 645.941 268.843 645.121 268.905 644.081 270.849 "/></g>
<g fill="#51296DFF" stroke="#51296DFF">
<path d="M 1935.495 270.164 C 1935.215 270.899 1935.102 342.600 1935.243 429.500 L 1935.500 587.500 1966.207 587.764 C 1995.922 588.020 1996.948 587.965 1997.973 586.050 C 1998.708 584.676 1998.951 539.026 1998.766 436.785 L 1998.500 289.500 1995.805 284.916 C 1992.822 279.842 1986.887 274.074 1981.810 271.314 C 1978.985 269.779 1975.384 269.465 1957.252 269.172 C 1940.203 268.896 1935.903 269.092 1935.495 270.164 "/></g>
<g fill="#51296DFF" stroke="#51296DFF">
<path d="M 1153.411 65.891 C 1149.271 68.416 1146.225 72.451 1144.986 77.053 C 1144.334 79.474 1143.985 106.366 1144.020 151.425 C 1144.057 198.097 1143.718 223.275 1143.020 225.753 C 1140.090 236.150 1131.390 242.346 1119.586 242.442 C 1109.461 242.525 1105.822 241.476 1100.753 237.014 C 1094.011 231.079 1091.612 224.761 1091.636 213.000 C 1091.656 202.645 1093.306 195.622 1098.093 185.514 C 1099.652 182.221 1100.606 179.250 1100.214 178.911 C 1099.821 178.572 1093.551 176.362 1086.280 174.000 C 1075.854 170.614 1072.758 169.956 1071.636 170.887 C 1068.943 173.122 1061.163 194.272 1059.456 204.000 C 1053.683 236.889 1069.667 262.021 1100.760 268.947 C 1123.436 273.997 1148.321 268.486 1161.472 255.500 C 1170.218 246.864 1175.935 232.779 1175.983 219.750 C 1175.999 215.296 1177.078 213.700 1178.509 216.014 C 1179.767 218.050 1186.661 220.814 1192.208 221.507 C 1198.579 222.303 1230.599 220.489 1238.854 218.864 C 1249.029 216.861 1253.312 212.738 1256.424 201.950 C 1257.785 197.235 1257.986 190.989 1257.763 160.450 L 1257.500 124.500 1246.472 124.500 C 1236.440 124.500 1235.176 124.710 1232.472 126.830 C 1226.399 131.592 1226.089 133.142 1226.036 159.000 C 1226.010 172.097 1225.527 184.164 1224.945 186.259 C 1223.264 192.312 1220.501 193.445 1206.431 193.849 C 1190.599 194.304 1184.390 193.030 1179.910 188.407 L 1176.500 184.890 1176.220 124.445 L 1175.940 64.000 1166.220 64.004 C 1158.465 64.007 1155.876 64.388 1153.411 65.891 "/></g>
<g fill="#51296DFF" stroke="#51296DFF">
<path d="M 1582.299 144.898 C 1575.242 150.010 1575.003 151.461 1574.978 189.270 C 1574.957 220.554 1574.837 222.763 1572.916 227.000 C 1570.238 232.908 1567.570 235.653 1561.514 238.735 C 1555.801 241.643 1546.445 242.237 1539.237 240.150 C 1531.013 237.769 1524.051 228.912 1522.612 219.000 C 1521.477 211.180 1523.518 197.290 1527.021 189.000 C 1532.322 176.454 1533.151 177.873 1517.553 172.786 C 1507.325 169.450 1503.562 168.609 1502.494 169.420 C 1500.279 171.099 1494.265 185.158 1491.863 194.270 C 1488.932 205.389 1488.701 224.912 1491.405 233.000 C 1497.577 251.456 1509.620 262.898 1527.710 267.491 C 1536.802 269.800 1548.024 271.112 1552.972 270.446 C 1575.932 267.354 1588.545 261.191 1597.247 248.813 C 1605.851 236.574 1605.462 239.355 1605.797 187.750 L 1606.094 142.000 1596.197 142.000 C 1586.865 142.000 1586.072 142.165 1582.299 144.898 "/></g>
<g fill="#51296DFF" stroke="#51296DFF">
<path d="M 1295.667 119.667 C 1295.300 120.033 1295.000 125.835 1295.000 132.560 C 1295.000 142.786 1295.259 144.885 1296.582 145.393 C 1297.452 145.727 1304.989 146.011 1313.332 146.024 C 1334.299 146.057 1339.001 147.442 1343.349 154.867 C 1344.898 157.511 1345.179 160.017 1345.079 170.263 C 1344.865 191.975 1344.842 191.993 1317.846 192.016 C 1299.647 192.032 1298.265 192.166 1294.530 194.282 C 1288.002 197.979 1286.000 201.938 1286.000 211.148 L 1286.000 219.000 1317.168 219.000 C 1335.246 219.000 1350.976 218.540 1354.621 217.905 C 1373.333 214.647 1378.845 201.231 1377.797 161.500 C 1377.438 147.870 1377.161 145.976 1374.763 140.765 C 1371.068 132.734 1367.617 128.553 1361.650 124.873 C 1353.101 119.601 1349.144 119.025 1321.417 119.012 C 1307.621 119.005 1296.033 119.300 1295.667 119.667 "/></g>
<g fill="#51296DFF" stroke="#51296DFF">
<path d="M 1414.000 63.728 C 1411.481 64.686 1407.640 68.001 1405.778 70.823 C 1404.132 73.319 1404.013 78.410 1404.007 146.276 L 1404.000 219.052 1419.250 218.776 L 1434.500 218.500 1434.756 140.750 L 1435.012 63.000 1425.256 63.079 C 1419.890 63.122 1414.825 63.415 1414.000 63.728 "/></g>
<g fill="#51296DFF" stroke="#51296DFF">
<path d="M 1642.990 65.250 C 1641.172 66.488 1638.743 68.770 1637.592 70.323 C 1635.514 73.126 1635.500 73.647 1635.500 145.823 L 1635.500 218.500 1650.750 218.776 L 1666.000 219.052 1666.000 141.026 L 1666.000 63.000 1656.148 63.000 C 1647.577 63.000 1645.866 63.293 1642.990 65.250 "/></g>
<g fill="#51296DFF" stroke="#51296DFF">
<path d="M 1417.073 2.553 C 1410.005 4.502 1403.649 9.733 1401.496 15.371 C 1399.842 19.703 1399.704 31.477 1401.266 35.000 C 1401.716 36.016 1400.893 37.150 1398.715 38.514 C 1396.039 40.190 1395.448 41.238 1395.193 44.764 L 1394.885 49.000 1421.443 49.000 L 1448.000 49.000 1448.000 43.000 L 1448.000 37.000 1436.223 37.000 C 1423.315 37.000 1421.239 36.296 1418.494 30.989 C 1417.672 29.400 1417.000 26.242 1417.000 23.973 C 1417.000 15.933 1425.252 11.493 1432.872 15.434 C 1434.398 16.223 1436.248 17.594 1436.984 18.480 C 1438.185 19.928 1438.712 19.710 1442.161 16.343 C 1444.272 14.281 1446.000 12.043 1446.000 11.370 C 1446.000 10.697 1444.400 8.826 1442.444 7.214 C 1436.256 2.114 1425.697 0.174 1417.073 2.553 "/></g>
<g fill="#51296DFF" stroke="#51296DFF">
<path d="M 1803.000 253.971 L 1803.000 267.000 1815.981 267.000 C 1831.308 267.000 1830.240 268.159 1829.792 252.000 L 1829.500 241.500 1816.250 241.221 L 1803.000 240.942 1803.000 253.971 "/></g>
<g fill="#51296DFF" stroke="#51296DFF">
<path d="M 1243.000 254.000 L 1243.000 267.000 1256.000 267.000 L 1269.000 267.000 1269.000 254.000 L 1269.000 241.000 1256.000 241.000 L 1243.000 241.000 1243.000 254.000 "/></g>
<g fill="#51296DFF" stroke="#51296DFF">
<path d="M 1550.791 96.988 C 1546.752 98.206 1542.161 101.787 1540.485 105.029 C 1538.373 109.113 1538.443 121.572 1540.582 122.393 C 1543.592 123.548 1563.540 123.060 1564.800 121.800 C 1566.450 120.150 1566.450 98.850 1564.800 97.200 C 1563.460 95.860 1554.961 95.731 1550.791 96.988 "/></g>
<g fill="#51296DFF" stroke="#51296DFF">
<path d="M 1777.345 241.693 C 1776.159 241.925 1773.607 243.651 1771.672 245.530 C 1767.839 249.252 1765.529 256.572 1766.158 263.000 L 1766.500 266.500 1779.750 266.779 L 1793.000 267.058 1793.000 254.029 L 1793.000 241.000 1786.250 241.136 C 1782.538 241.211 1778.530 241.462 1777.345 241.693 "/></g>
<g fill="#51296DFF" stroke="#51296DFF">
<path d="M 1217.504 241.737 C 1211.744 243.193 1207.400 249.245 1206.491 257.080 C 1205.322 267.151 1205.115 267.000 1220.067 267.000 L 1233.000 267.000 1233.000 254.000 L 1233.000 241.000 1226.250 241.116 C 1222.538 241.180 1218.602 241.459 1217.504 241.737 "/></g>
</svg>
