<?xml version="1.0" encoding="utf-8"?>
<!DOCTYPE svg PUBLIC "-//W3C//DTD SVG 20010904//EN" "http://www.w3.org/TR/2001/REC-SVG-20010904/DTD/svg10.dtd">
<svg version="1.0" xmlns="http://www.w3.org/2000/svg" width="2002pt" height="390pt" viewBox="0 0 2002 390" style="" preserveAspectRatio="xMidYMid meet">
<g fill="#006937FF" stroke="#006937FF">
<path d="M 1465.756 177.750 L 1465.500 257.500 1455.500 257.500 L 1445.500 257.500 1445.240 209.750 L 1444.981 162.000 1429.490 162.000 L 1414.000 162.000 1414.000 210.025 L 1414.000 258.050 1397.750 257.775 L 1381.500 257.500 1381.240 209.750 L 1380.981 162.000 1365.490 162.000 L 1350.000 162.000 1350.000 210.000 L 1350.000 258.000 1334.000 258.000 L 1318.000 258.000 1318.000 210.000 L 1318.000 162.000 1302.000 162.000 L 1286.000 162.000 1286.000 210.000 L 1286.000 258.000 1228.000 258.000 L 1170.000 258.000 1169.986 228.250 C 1169.979 211.888 1169.701 197.488 1169.370 196.250 L 1168.767 194.000 1216.883 194.000 L 1265.000 194.000 1265.000 178.000 L 1265.000 162.000 1217.761 162.000 L 1170.522 162.000 1154.261 178.239 L 1138.000 194.477 1138.000 226.239 L 1138.000 258.000 1128.000 258.000 L 1118.000 258.000 1118.000 210.000 L 1118.000 162.000 1070.239 162.000 L 1022.477 162.000 1006.241 178.259 L 990.005 194.517 990.666 241.759 L 991.326 289.000 1022.925 289.000 L 1054.524 289.000 1070.000 273.500 L 1085.476 258.000 1053.738 258.000 L 1022.000 258.000 1022.000 226.000 L 1022.000 194.000 1053.838 194.000 L 1085.676 194.000 1086.296 257.163 C 1086.638 291.902 1086.684 320.702 1086.399 321.163 C 1086.115 321.623 1064.534 322.000 1038.441 322.000 L 991.000 322.000 991.000 337.500 L 991.000 353.000 1038.774 353.000 L 1086.548 353.000 1102.274 336.946 L 1118.000 320.893 1118.000 304.946 L 1118.000 289.000 1291.762 289.000 L 1465.523 289.000 1481.262 273.239 L 1497.000 257.477 1497.000 177.739 L 1497.000 98.000 1481.506 98.000 L 1466.012 98.000 1465.756 177.750 "/></g>
<g fill="#006937FF" stroke="#006937FF">
<path d="M 405.172 126.436 C 323.005 142.960 284.557 151.088 283.938 152.067 C 283.439 152.855 283.031 154.850 283.032 156.500 C 283.032 158.150 282.506 175.143 281.861 194.262 C 281.217 213.381 280.915 229.249 281.190 229.524 C 281.465 229.799 287.722 227.151 295.095 223.641 C 336.122 204.107 365.703 193.775 392.619 189.578 C 404.743 187.687 430.680 187.592 443.000 189.393 C 451.303 190.607 451.396 190.651 447.000 191.271 C 444.525 191.621 437.604 192.152 431.620 192.452 C 405.824 193.744 382.466 199.962 350.434 214.062 C 332.193 222.091 288.964 244.573 289.023 246.000 C 289.054 246.757 349.012 281.944 358.250 286.626 C 360.863 287.950 362.979 289.589 362.954 290.267 C 362.928 290.945 360.027 294.636 356.507 298.468 L 350.107 305.436 357.804 309.914 C 369.655 316.809 377.873 319.765 390.279 321.593 C 403.900 323.601 415.871 323.088 429.085 319.930 C 439.981 317.325 442.286 316.003 435.950 315.992 C 425.435 315.975 408.160 312.007 394.762 306.533 C 385.236 302.641 370.803 295.013 366.556 291.626 L 363.642 289.302 370.071 282.370 C 373.607 278.556 380.361 271.176 385.080 265.968 C 389.799 260.761 403.250 245.925 414.972 233.000 C 426.694 220.075 439.933 205.472 444.392 200.549 C 448.851 195.626 456.775 186.878 462.000 181.110 C 467.225 175.341 478.709 162.719 487.519 153.060 C 524.400 112.631 532.060 103.906 531.486 102.978 C 531.154 102.440 529.671 102.054 528.191 102.120 C 526.711 102.185 471.353 113.128 405.172 126.436 "/></g>
<g fill="#006937FF" stroke="#006937FF">
<path d="M 2.024 103.250 C 2.037 103.938 8.164 111.250 15.638 119.500 C 41.417 147.955 45.521 152.476 51.500 159.000 C 54.800 162.601 61.325 169.793 66.000 174.983 C 70.675 180.173 79.900 190.303 86.500 197.494 C 93.100 204.686 100.750 213.057 103.500 216.096 C 106.250 219.136 120.911 235.320 136.079 252.061 C 151.248 268.803 165.023 284.046 166.690 285.935 L 169.720 289.371 181.682 282.757 C 188.261 279.120 202.612 270.802 213.572 264.272 C 224.532 257.742 236.114 250.912 239.309 249.093 C 242.504 247.274 244.979 245.673 244.809 245.535 C 241.115 242.546 197.510 220.150 183.000 213.790 C 149.521 199.114 130.224 194.156 97.954 191.941 C 88.904 191.320 81.386 190.702 81.246 190.568 C 80.238 189.603 104.192 187.643 116.000 187.724 C 139.950 187.888 160.178 192.091 190.500 203.203 C 202.925 207.757 231.092 220.036 244.275 226.645 C 252.558 230.798 253.023 230.918 252.576 228.772 C 252.315 227.523 251.558 209.542 250.893 188.815 L 249.684 151.131 242.592 149.586 C 238.692 148.736 207.150 142.361 172.500 135.420 C 137.850 128.478 86.165 118.119 57.645 112.400 C 29.125 106.680 4.938 102.000 3.895 102.000 C 2.853 102.000 2.011 102.563 2.024 103.250 "/></g>
<g fill="#006937FF" stroke="#006937FF">
<path d="M 615.239 178.261 L 599.000 194.522 599.000 241.761 L 599.000 289.000 630.831 289.000 L 662.662 289.000 677.923 273.750 L 693.183 258.500 662.092 258.236 L 631.000 257.972 631.000 225.986 L 631.000 194.000 663.000 194.000 L 695.000 194.000 695.000 241.500 L 695.000 289.000 742.762 289.000 L 790.523 289.000 806.262 273.239 L 822.000 257.477 822.000 209.739 L 822.000 162.000 806.012 162.000 L 790.023 162.000 790.262 209.750 L 790.500 257.500 758.500 257.500 L 726.500 257.500 726.240 209.750 L 725.981 162.000 678.729 162.000 L 631.477 162.000 615.239 178.261 "/></g>
<g fill="#006937FF" stroke="#006937FF">
<path d="M 263.741 7.266 C 262.306 10.295 260.829 14.395 260.457 16.377 L 259.781 19.980 257.141 18.156 C 252.467 14.927 246.105 12.999 240.230 13.032 C 234.912 13.061 234.644 13.172 236.500 14.563 C 239.743 16.994 245.000 22.108 244.999 22.831 C 244.998 23.199 239.035 23.551 231.749 23.614 C 220.370 23.711 217.371 24.096 210.500 26.338 C 206.100 27.774 199.585 30.648 196.023 32.724 C 189.697 36.412 172.000 52.964 172.000 55.194 C 172.000 55.852 172.717 55.677 173.750 54.766 C 176.786 52.088 189.181 46.337 197.729 43.641 C 207.738 40.485 221.735 38.729 228.500 39.781 L 233.500 40.559 227.000 42.384 C 219.817 44.401 209.039 49.501 202.606 53.927 C 191.281 61.719 181.340 75.775 176.739 90.500 C 173.057 102.287 173.052 102.287 183.686 91.494 C 189.102 85.997 196.069 79.345 199.169 76.712 C 204.766 71.957 224.096 59.762 224.846 60.513 C 225.061 60.728 223.677 62.728 221.770 64.956 C 217.316 70.159 213.012 78.417 209.498 88.500 C 207.167 95.188 206.633 98.631 206.244 109.500 C 205.738 123.618 206.308 124.440 209.870 114.729 C 214.914 100.983 222.885 88.471 232.917 78.555 C 236.781 74.735 240.189 71.856 240.489 72.156 C 240.790 72.456 240.352 75.948 239.518 79.916 C 237.517 89.429 237.496 114.188 239.480 124.559 C 240.294 128.813 241.150 132.483 241.382 132.716 C 241.615 132.948 242.308 130.744 242.924 127.819 C 244.614 119.790 252.781 94.426 256.228 86.500 C 259.218 79.625 264.931 70.000 266.023 70.000 C 267.113 70.000 273.248 81.051 277.037 89.840 C 281.207 99.513 287.888 119.149 290.020 128.000 L 291.344 133.500 292.701 128.500 C 294.741 120.985 295.521 95.170 294.015 85.000 C 291.861 70.451 291.688 70.785 298.131 77.036 C 309.269 87.843 319.700 104.099 324.096 117.500 C 326.413 124.564 327.000 123.627 327.000 112.860 C 327.000 96.214 321.059 77.959 311.667 65.750 C 309.657 63.138 308.359 61.000 308.781 61.000 C 310.687 61.000 325.772 70.406 331.815 75.362 C 335.492 78.378 343.113 85.540 348.750 91.277 C 354.388 97.015 359.000 101.601 359.000 101.467 C 359.000 101.333 357.849 97.253 356.443 92.399 C 352.655 79.330 347.740 70.732 339.011 61.908 C 329.186 51.976 318.177 45.658 304.000 41.813 L 299.500 40.593 305.500 40.014 C 313.408 39.251 324.831 40.504 333.500 43.086 C 341.417 45.443 353.725 50.956 358.224 54.159 C 361.116 56.219 361.190 56.224 360.161 54.300 C 358.435 51.075 345.626 38.564 340.527 35.123 C 327.804 26.536 317.723 23.602 300.751 23.544 C 293.739 23.520 288.001 23.128 288.001 22.673 C 288.000 21.680 292.527 17.170 296.000 14.705 C 298.468 12.954 298.401 12.936 290.751 13.315 C 284.217 13.639 282.224 14.184 278.035 16.788 L 273.067 19.876 272.397 16.188 C 272.028 14.160 270.517 10.083 269.037 7.130 L 266.348 1.759 263.741 7.266 "/></g>
<g fill="#263778FF" stroke="#263778FF">
<path d="M 1869.161 126.970 C 1853.629 131.171 1841.079 139.912 1815.647 164.239 L 1801.285 177.978 1788.139 176.787 C 1766.010 174.781 1748.058 177.919 1736.067 185.889 C 1722.968 194.595 1724.501 205.740 1739.827 213.234 C 1746.277 216.388 1746.918 216.498 1759.000 216.499 L 1771.500 216.500 1779.500 212.232 C 1787.298 208.072 1792.953 203.747 1806.573 191.527 L 1813.231 185.553 1825.865 188.848 C 1832.814 190.660 1838.858 192.491 1839.296 192.917 C 1840.275 193.870 1816.014 217.440 1804.738 226.492 C 1800.207 230.128 1793.575 234.531 1790.000 236.275 C 1784.431 238.993 1782.260 239.480 1774.841 239.677 C 1765.481 239.925 1765.278 240.411 1773.058 243.941 C 1779.305 246.775 1790.933 246.737 1798.712 243.858 C 1810.787 239.389 1819.700 232.222 1845.453 206.278 L 1854.607 197.057 1867.053 200.628 C 1873.899 202.591 1879.636 204.327 1879.801 204.484 C 1880.350 205.004 1839.640 244.689 1832.000 251.082 C 1810.673 268.927 1792.061 275.932 1777.568 271.570 C 1772.993 270.194 1772.878 270.208 1774.465 271.961 C 1775.370 272.962 1778.899 275.286 1782.306 277.125 C 1788.081 280.244 1789.143 280.471 1798.000 280.485 C 1819.373 280.519 1833.049 271.493 1874.238 230.167 L 1895.500 208.834 1905.687 210.417 C 1924.280 213.307 1937.901 211.839 1947.067 205.957 C 1956.779 199.725 1956.520 191.404 1946.408 184.745 C 1930.693 174.396 1909.091 179.017 1889.007 197.023 C 1883.937 201.569 1885.071 201.567 1869.372 197.062 C 1863.942 195.504 1859.527 193.841 1859.559 193.365 C 1859.592 192.889 1864.738 187.866 1870.995 182.201 C 1888.443 166.406 1903.462 159.876 1918.774 161.426 C 1922.225 161.775 1926.018 162.385 1927.202 162.780 C 1928.387 163.176 1927.138 162.022 1924.428 160.215 C 1917.949 155.896 1911.234 153.994 1902.568 154.024 C 1893.283 154.057 1887.991 155.342 1879.500 159.627 C 1870.598 164.120 1864.706 168.676 1853.203 179.961 C 1848.136 184.933 1843.655 189.002 1843.245 189.004 C 1841.107 189.016 1817.999 181.512 1818.230 180.881 C 1818.378 180.473 1825.244 173.761 1833.486 165.966 C 1849.181 151.124 1862.988 141.074 1873.225 137.043 C 1884.008 132.796 1900.004 132.622 1909.691 136.647 L 1914.152 138.500 1908.445 134.273 C 1897.110 125.877 1882.939 123.242 1869.161 126.970 M 1793.868 182.864 C 1796.175 183.511 1796.124 183.631 1791.868 187.535 C 1782.613 196.027 1772.847 203.261 1765.520 207.053 C 1759.174 210.337 1756.905 211.000 1752.011 211.000 C 1744.725 211.000 1741.303 209.760 1739.862 206.597 C 1736.301 198.781 1744.644 189.681 1759.407 185.281 C 1768.071 182.698 1788.236 181.284 1793.868 182.864 M 1940.434 187.328 C 1941.465 188.082 1942.250 189.908 1942.250 191.550 C 1942.250 195.206 1936.749 200.194 1930.154 202.517 C 1924.444 204.529 1900.000 205.888 1900.000 204.194 C 1900.000 201.980 1918.600 190.078 1926.500 187.237 C 1930.746 185.710 1938.288 185.759 1940.434 187.328 "/></g>
<g fill="#006937FF" stroke="#006937FF">
<path d="M 875.000 178.000 L 875.000 194.000 907.014 194.000 L 939.028 194.000 938.764 225.750 L 938.500 257.500 890.750 257.760 L 843.000 258.019 843.000 273.510 L 843.000 289.000 890.762 289.000 L 938.523 289.000 954.262 273.239 L 970.000 257.477 970.000 209.739 L 970.000 162.000 922.500 162.000 L 875.000 162.000 875.000 178.000 "/></g>
<g fill="#006937FF" stroke="#006937FF">
<path d="M 1518.000 193.500 L 1518.000 289.000 1533.500 289.000 L 1549.000 289.000 1549.000 193.500 L 1549.000 98.000 1533.500 98.000 L 1518.000 98.000 1518.000 193.500 "/></g>
<g fill="#006937FF" stroke="#006937FF">
<path d="M 242.500 268.864 C 198.828 295.402 184.735 304.713 185.702 306.389 C 186.141 307.149 188.750 310.204 191.500 313.178 C 194.250 316.151 210.424 333.966 227.442 352.766 C 244.461 371.567 258.533 386.800 258.714 386.620 C 258.895 386.439 258.595 374.188 258.047 359.395 C 257.500 344.603 256.545 318.325 255.926 301.000 C 255.307 283.675 254.508 267.853 254.150 265.840 L 253.500 262.180 242.500 268.864 "/></g>
<g fill="#006937FF" stroke="#006937FF">
<path d="M 279.000 264.679 C 279.000 270.522 276.982 325.056 276.028 345.000 C 275.489 356.275 274.957 370.581 274.845 376.791 L 274.643 388.081 277.071 385.163 C 278.407 383.559 285.179 376.003 292.120 368.373 C 299.061 360.743 314.705 343.516 326.885 330.091 L 349.030 305.682 342.265 301.236 C 334.997 296.459 304.600 277.452 291.500 269.492 C 287.100 266.819 282.488 263.987 281.250 263.201 C 279.104 261.836 279.000 261.905 279.000 264.679 "/></g>
<g fill="#263778FF" stroke="#263778FF">
<path d="M 1957.673 106.500 C 1972.294 124.482 1983.416 148.001 1988.647 172.000 C 1991.281 184.084 1991.326 221.019 1988.720 232.000 C 1985.538 245.408 1981.857 256.303 1977.040 266.563 C 1950.073 324.004 1890.085 358.615 1826.969 353.147 C 1801.765 350.964 1779.318 343.507 1757.855 330.188 L 1751.912 326.500 1757.706 331.108 C 1774.370 344.359 1798.240 354.692 1823.500 359.587 C 1835.992 362.008 1862.210 362.019 1874.500 359.608 C 1910.610 352.525 1939.345 336.529 1961.820 311.000 C 1992.369 276.299 2005.671 230.041 1997.945 185.380 C 1995.306 170.127 1992.890 162.200 1986.553 148.000 C 1979.418 132.015 1966.832 113.551 1956.900 104.500 C 1953.937 101.801 1954.015 102.001 1957.673 106.500 "/></g>
<g fill="#263778FF" stroke="#263778FF">
<path d="M 1874.079 25.750 C 1870.311 39.917 1866.000 57.451 1866.000 58.613 C 1866.000 59.561 1867.247 60.000 1869.937 60.000 L 1873.874 60.000 1877.187 45.750 C 1879.009 37.913 1880.616 32.625 1880.758 34.000 C 1882.171 47.711 1884.553 62.642 1885.422 63.235 C 1886.015 63.639 1887.714 63.976 1889.197 63.985 C 1891.519 63.998 1893.123 62.260 1900.697 51.526 L 1909.500 39.052 1905.738 51.776 C 1903.669 58.774 1901.981 65.309 1901.988 66.298 C 1902.003 68.552 1908.164 71.458 1909.131 69.668 C 1910.395 67.328 1919.128 34.885 1918.777 33.832 C 1918.579 33.236 1915.862 31.958 1912.739 30.992 L 1907.062 29.236 1898.781 41.660 L 1890.500 54.085 1889.850 45.061 C 1889.493 40.098 1888.893 33.384 1888.516 30.140 L 1887.832 24.242 1882.249 23.121 C 1874.806 21.626 1875.211 21.496 1874.079 25.750 "/></g>
<g fill="#006937FF" stroke="#006937FF">
<path d="M 164.500 292.905 C 146.087 305.867 116.569 315.733 95.178 316.075 C 91.098 316.140 92.035 316.537 102.500 319.180 C 123.338 324.442 146.539 323.225 162.984 316.007 C 168.642 313.524 181.025 306.915 182.876 305.391 C 183.373 304.982 169.939 289.987 169.127 290.045 C 168.782 290.069 166.700 291.356 164.500 292.905 "/></g>
<g fill="#006937FF" stroke="#006937FF">
<path d="M 791.000 337.500 L 791.000 353.000 806.500 353.000 L 822.000 353.000 822.000 337.500 L 822.000 322.000 806.500 322.000 L 791.000 322.000 791.000 337.500 "/></g>
<g fill="#006937FF" stroke="#006937FF">
<path d="M 727.000 337.500 L 727.000 353.000 742.500 353.000 L 758.000 353.000 758.000 337.500 L 758.000 322.000 742.500 322.000 L 727.000 322.000 727.000 337.500 "/></g>
<g fill="#006937FF" stroke="#006937FF">
<path d="M 695.000 114.500 L 695.000 130.000 710.500 130.000 L 726.000 130.000 726.000 114.500 L 726.000 99.000 710.500 99.000 L 695.000 99.000 695.000 114.500 "/></g>
<g fill="#006937FF" stroke="#006937FF">
<path d="M 631.000 114.500 L 631.000 130.000 646.500 130.000 L 662.000 130.000 662.000 114.500 L 662.000 99.000 646.500 99.000 L 631.000 99.000 631.000 114.500 "/></g>
<g fill="#263778FF" stroke="#263778FF">
<path d="M 1816.297 22.700 C 1815.086 22.934 1813.877 23.886 1813.610 24.813 C 1811.807 31.092 1803.979 64.312 1804.241 64.574 C 1804.419 64.752 1806.433 64.424 1808.717 63.844 C 1812.585 62.862 1812.953 62.461 1814.101 57.984 C 1815.309 53.268 1815.419 53.166 1819.916 52.562 C 1822.437 52.223 1826.141 51.702 1828.146 51.403 C 1831.579 50.891 1831.927 51.098 1834.081 54.930 C 1836.271 58.828 1836.576 59.000 1841.283 59.000 L 1846.198 59.000 1844.010 55.250 C 1842.807 53.188 1837.700 44.864 1832.661 36.753 C 1822.935 21.097 1823.235 21.354 1816.297 22.700 M 1825.926 41.381 C 1827.103 43.284 1827.713 45.051 1827.283 45.306 C 1826.852 45.562 1824.191 46.083 1821.368 46.463 L 1816.236 47.155 1817.743 40.328 C 1820.022 30.009 1819.958 30.102 1821.970 34.210 C 1822.969 36.250 1824.750 39.477 1825.926 41.381 "/></g>
<g fill="#263778FF" stroke="#263778FF">
<path d="M 1752.752 45.817 C 1745.741 50.043 1740.021 53.950 1740.041 54.500 C 1740.093 55.895 1758.416 86.500 1759.200 86.500 C 1759.552 86.500 1765.911 82.936 1773.332 78.580 L 1786.824 70.661 1785.215 68.080 C 1784.329 66.661 1783.503 65.347 1783.378 65.159 C 1783.253 64.971 1778.866 67.375 1773.628 70.501 C 1768.391 73.626 1763.677 75.919 1763.154 75.595 C 1762.630 75.271 1761.281 73.447 1760.157 71.541 L 1758.112 68.075 1767.056 62.913 C 1771.975 60.074 1776.000 57.553 1776.000 57.310 C 1776.000 55.944 1773.751 53.002 1772.715 53.011 C 1772.047 53.017 1768.125 55.037 1764.000 57.500 C 1759.875 59.963 1756.021 61.983 1755.435 61.989 C 1754.850 61.995 1753.636 60.460 1752.739 58.578 C 1750.835 54.585 1750.272 55.210 1761.750 48.577 C 1766.288 45.955 1770.000 43.503 1770.000 43.127 C 1770.000 42.039 1766.956 37.993 1766.193 38.067 C 1765.812 38.104 1759.764 41.592 1752.752 45.817 "/></g>
<g fill="#263778FF" stroke="#263778FF">
<path d="M 1703.473 87.205 C 1689.267 104.632 1690.337 102.790 1692.937 105.330 L 1695.158 107.500 1699.524 102.590 L 1703.891 97.679 1707.195 100.241 C 1709.013 101.649 1714.325 105.996 1719.000 109.900 C 1723.675 113.803 1727.753 116.998 1728.063 116.999 C 1728.914 117.001 1734.418 111.072 1733.927 110.682 C 1726.449 104.749 1710.008 90.622 1710.030 90.149 C 1710.046 89.792 1711.784 87.506 1713.890 85.068 L 1717.721 80.636 1715.084 78.417 L 1712.446 76.198 1703.473 87.205 "/></g>
<g fill="#263778FF" stroke="#263778FF">
<path d="M 1689.000 257.230 C 1686.001 260.449 1685.519 263.570 1686.835 271.244 C 1688.732 282.304 1688.435 285.845 1685.500 287.182 C 1681.932 288.808 1678.539 286.978 1676.041 282.080 C 1673.315 276.736 1673.418 272.492 1676.344 269.565 C 1678.344 267.565 1678.515 266.897 1677.509 265.017 L 1676.329 262.813 1673.415 265.322 C 1670.716 267.646 1670.503 268.337 1670.534 274.666 C 1670.563 280.357 1671.021 282.206 1673.279 285.722 C 1676.616 290.919 1681.042 293.402 1685.484 292.569 C 1691.634 291.415 1693.630 286.991 1692.017 278.093 C 1689.529 264.371 1690.736 260.000 1697.017 260.000 C 1700.333 260.000 1703.230 263.149 1705.486 269.207 C 1707.538 274.718 1706.968 278.198 1703.484 281.427 C 1701.350 283.405 1701.216 283.914 1702.403 285.537 C 1703.678 287.280 1703.906 287.291 1706.290 285.730 C 1713.383 281.082 1711.296 264.634 1702.694 257.396 C 1698.825 254.141 1691.956 254.058 1689.000 257.230 "/></g>
<g fill="#263778FF" stroke="#263778FF">
<path d="M 1685.500 203.557 L 1674.500 212.853 1666.250 204.698 C 1658.066 196.609 1658.000 196.569 1658.000 199.684 C 1658.000 202.184 1659.396 204.322 1664.843 210.162 C 1668.607 214.198 1673.153 219.188 1674.947 221.250 L 1678.207 225.000 1668.604 225.000 L 1659.000 225.000 1659.000 227.654 L 1659.000 230.307 1671.157 229.654 C 1677.843 229.294 1686.393 229.000 1690.157 229.000 C 1696.790 229.000 1697.000 228.923 1697.000 226.500 C 1697.000 224.073 1696.797 224.000 1690.051 224.000 C 1683.346 224.000 1683.012 223.883 1680.551 220.656 C 1679.148 218.816 1678.000 217.076 1678.000 216.789 C 1678.000 216.502 1682.279 212.719 1687.509 208.383 C 1696.138 201.229 1696.994 200.211 1696.759 197.380 L 1696.500 194.260 1685.500 203.557 "/></g>
<g fill="#263778FF" stroke="#263778FF">
<path d="M 1674.607 131.582 C 1673.428 134.655 1674.056 136.182 1679.558 143.621 C 1682.614 147.755 1685.334 151.706 1685.601 152.403 C 1685.939 153.283 1682.837 154.532 1675.461 156.487 C 1666.324 158.909 1664.703 159.652 1663.890 161.790 C 1663.370 163.158 1663.094 164.427 1663.277 164.610 C 1663.559 164.893 1667.910 163.694 1687.000 158.075 C 1688.718 157.570 1691.891 158.210 1697.146 160.121 L 1704.792 162.903 1705.348 160.778 C 1705.653 159.609 1705.722 158.359 1705.499 157.999 C 1705.277 157.639 1702.036 156.299 1698.298 155.021 L 1691.500 152.698 1683.529 141.349 C 1679.144 135.107 1675.480 130.000 1675.386 130.000 C 1675.291 130.000 1674.941 130.712 1674.607 131.582 "/></g>
</svg>
