<?xml version="1.0" encoding="utf-8"?>
<!DOCTYPE svg PUBLIC "-//W3C//DTD SVG 20010904//EN" "http://www.w3.org/TR/2001/REC-SVG-20010904/DTD/svg10.dtd">
<svg version="1.0" xmlns="http://www.w3.org/2000/svg" width="1202pt" height="983pt" viewBox="0 0 1202 983" style="" preserveAspectRatio="xMidYMid meet">
<g fill="#4F9F31FF" stroke="#4F9F31FF">
<path d="M 748.833 2.047 C 726.138 5.198 710.648 17.167 698.628 40.843 C 683.122 71.385 664.615 121.848 646.860 182.000 C 643.532 193.275 640.290 203.009 639.655 203.630 C 639.020 204.252 631.975 206.903 624.000 209.521 C 603.577 216.226 557.981 233.380 533.916 243.413 C 522.722 248.079 513.391 251.724 513.178 251.512 C 512.426 250.760 522.335 218.029 533.466 184.500 C 549.549 136.052 566.147 92.774 583.323 54.500 C 585.791 49.000 587.481 44.150 587.078 43.723 C 586.675 43.295 581.130 42.188 574.754 41.261 C 564.855 39.823 561.618 39.750 552.577 40.760 C 529.025 43.392 514.470 53.703 502.514 76.225 C 483.889 111.310 451.083 208.702 432.958 282.714 L 430.702 291.928 416.601 299.626 C 395.529 311.130 364.994 329.627 342.476 344.527 C 313.984 363.381 305.691 372.848 301.476 391.335 C 299.794 398.709 300.558 409.342 303.227 415.687 L 304.531 418.790 316.515 411.775 C 340.806 397.559 412.010 360.000 414.670 360.000 C 415.268 360.000 414.719 364.954 413.312 372.250 C 406.264 408.797 399.485 452.965 396.545 481.500 C 394.009 506.113 392.832 534.763 394.014 543.131 C 396.081 557.758 403.636 568.562 415.841 574.345 C 422.194 577.355 423.052 577.497 434.500 577.443 C 445.766 577.389 455.000 575.904 455.000 574.147 C 455.000 570.494 459.506 526.670 461.528 510.655 C 468.531 455.190 481.028 384.658 493.471 330.372 L 495.105 323.244 513.302 315.725 C 536.196 306.266 568.289 293.741 586.500 287.158 C 612.800 277.651 620.378 275.045 620.723 275.389 C 620.912 275.579 618.816 284.456 616.064 295.117 C 591.544 390.098 567.798 517.736 562.040 585.500 C 559.297 617.789 562.260 632.356 573.952 644.048 C 582.027 652.123 594.389 657.035 606.460 656.965 C 613.212 656.926 627.861 654.556 629.060 653.309 C 629.488 652.864 630.337 647.325 630.946 641.000 C 636.313 585.331 648.440 504.103 662.573 429.159 C 672.897 374.412 680.564 341.382 699.554 269.839 L 705.304 248.179 714.902 245.490 C 778.102 227.781 850.021 213.469 910.950 206.478 C 918.347 205.629 924.555 204.779 924.745 204.589 C 925.655 203.679 922.343 193.577 918.488 185.500 C 911.688 171.256 901.590 162.178 886.500 156.747 C 873.036 151.901 855.094 150.707 837.000 153.454 C 824.704 155.320 785.454 164.106 752.523 172.364 C 738.235 175.947 726.388 178.721 726.196 178.529 C 725.683 178.016 741.682 130.505 749.778 108.500 C 759.677 81.596 767.553 61.363 779.676 31.694 C 785.476 17.500 790.011 5.678 789.755 5.422 C 789.499 5.166 786.187 4.302 782.395 3.503 C 773.321 1.591 757.167 0.891 748.833 2.047 "/></g>
<g fill="#4F9F31FF" stroke="#4F9F31FF">
<path d="M 543.063 733.192 C 535.811 735.976 528.900 742.932 526.306 750.059 C 525.217 753.052 522.351 765.325 519.937 777.334 L 515.548 799.168 508.024 798.508 C 503.733 798.131 496.633 798.359 491.500 799.038 C 450.521 804.459 420.466 836.818 417.438 878.778 C 415.519 905.380 429.035 924.306 452.670 928.112 C 465.421 930.165 481.289 926.479 490.735 919.268 C 493.796 916.932 495.545 916.134 495.817 916.950 C 496.817 919.951 502.456 925.009 506.541 926.569 C 508.987 927.503 513.535 928.320 516.647 928.384 L 522.306 928.500 542.037 832.918 C 552.889 780.348 562.080 735.911 562.463 734.168 L 563.159 731.000 555.829 731.052 C 550.907 731.087 546.714 731.790 543.063 733.192 M 510.490 821.156 C 511.219 821.886 499.722 876.746 497.333 883.938 C 492.522 898.417 483.220 906.027 470.384 905.984 C 455.883 905.935 449.082 891.507 453.434 870.027 C 458.228 846.367 471.997 827.958 489.844 821.345 C 493.520 819.983 509.175 819.840 510.490 821.156 "/></g>
<g fill="#4F9F31FF" stroke="#4F9F31FF">
<path d="M 145.929 724.346 C 136.436 726.950 129.892 732.254 125.522 740.886 C 124.580 742.748 121.136 756.916 117.869 772.371 C 114.602 787.826 111.608 800.749 111.215 801.089 C 110.485 801.720 59.404 812.035 55.524 812.335 C 53.452 812.495 53.621 811.375 61.127 775.000 C 65.383 754.375 69.141 736.038 69.478 734.250 L 70.091 731.000 63.727 731.000 C 50.020 731.000 40.638 736.293 35.287 747.044 C 32.631 752.383 30.585 760.769 23.465 795.500 C 18.730 818.600 11.918 851.450 8.326 868.500 C 0.939 903.568 0.268 910.855 3.767 918.000 C 4.979 920.475 7.458 923.506 9.277 924.736 C 12.621 926.998 20.662 929.000 26.399 929.000 L 29.525 929.000 37.914 888.616 L 46.303 848.233 74.712 842.553 C 90.337 839.430 103.469 837.015 103.894 837.187 C 104.319 837.359 101.581 852.125 97.810 870.000 C 92.155 896.803 91.039 903.605 91.444 908.806 C 92.381 920.840 97.900 926.503 110.453 928.311 C 114.572 928.904 118.258 929.075 118.644 928.690 C 119.029 928.304 128.853 881.979 140.474 825.745 L 161.604 723.500 156.052 723.296 C 152.998 723.184 148.443 723.657 145.929 724.346 "/></g>
<g fill="#4F9F31FF" stroke="#4F9F31FF">
<path d="M 732.361 802.058 C 724.581 804.525 717.151 811.234 713.600 819.000 C 710.416 825.965 699.036 877.710 698.290 888.621 C 697.538 899.614 698.475 904.745 702.435 911.322 C 705.837 916.972 705.933 918.000 703.055 918.000 C 700.012 918.000 687.498 924.761 684.307 928.130 C 679.548 933.152 677.048 939.481 677.022 946.572 C 676.990 955.449 679.443 961.574 685.426 967.553 C 694.897 977.017 707.972 981.271 727.500 981.243 C 764.967 981.189 789.280 963.030 800.125 927.000 C 801.367 922.875 808.061 892.950 815.002 860.500 C 825.814 809.947 827.407 801.371 826.129 800.599 C 824.014 799.321 811.009 801.515 805.586 804.064 C 799.457 806.945 792.723 814.427 790.297 821.051 C 789.198 824.048 786.836 833.700 785.047 842.500 C 777.926 877.528 774.825 886.761 767.430 894.946 C 760.091 903.069 749.358 906.021 740.849 902.257 C 735.069 899.701 732.751 895.171 732.843 886.614 C 732.893 881.953 744.344 823.967 749.504 802.250 C 750.012 800.110 749.755 800.003 744.269 800.056 C 741.096 800.087 735.738 800.988 732.361 802.058 M 766.894 924.250 C 764.153 934.293 759.057 944.623 754.086 950.213 C 746.000 959.306 732.212 963.639 719.657 961.033 C 715.067 960.080 712.932 958.943 709.428 955.586 C 705.341 951.670 705.000 950.956 705.000 946.319 C 705.000 936.112 711.530 931.151 728.500 928.464 C 749.116 925.200 754.605 923.874 761.000 920.616 C 764.575 918.795 767.809 917.236 768.186 917.152 C 768.564 917.069 767.982 920.263 766.894 924.250 "/></g>
<g fill="#4F9F31FF" stroke="#4F9F31FF">
<path d="M 624.000 799.892 C 613.138 802.308 605.896 805.072 598.148 809.761 C 578.557 821.615 564.756 839.827 558.848 861.622 C 555.644 873.444 555.648 892.972 558.858 902.302 C 562.823 913.828 570.374 921.679 581.718 926.070 C 586.384 927.877 589.527 928.310 598.000 928.315 C 611.926 928.324 618.968 925.986 630.578 917.503 C 632.535 916.073 632.795 916.203 635.078 919.742 C 636.507 921.960 639.374 924.431 642.074 925.771 C 646.762 928.099 660.002 930.037 659.998 928.395 C 659.997 927.903 665.397 901.334 671.998 869.354 C 678.599 837.374 684.000 810.915 684.000 810.555 C 684.000 809.248 669.298 802.980 661.500 800.962 C 649.884 797.957 634.655 797.522 624.000 799.892 M 644.250 820.053 C 646.534 820.687 648.000 821.703 648.000 822.653 C 648.000 825.340 637.031 877.245 635.353 882.500 C 631.423 894.804 625.314 901.897 616.313 904.606 C 610.082 906.482 605.321 906.329 600.405 904.096 C 592.535 900.522 589.320 890.359 591.200 875.001 C 594.492 848.106 612.820 824.057 633.045 820.092 C 639.245 818.877 640.008 818.874 644.250 820.053 "/></g>
<g fill="#4F9F31FF" stroke="#4F9F31FF">
<path d="M 211.230 800.961 C 198.755 804.322 188.616 810.304 179.000 819.976 C 163.289 835.777 155.543 854.128 154.299 878.500 C 153.272 898.597 159.264 912.186 173.055 921.035 C 181.614 926.527 188.853 928.300 203.000 928.369 C 217.648 928.441 224.539 926.937 236.500 921.058 C 264.285 907.401 281.678 875.062 279.749 840.643 C 278.670 821.393 269.560 808.372 252.744 802.045 C 243.784 798.674 221.844 798.101 211.230 800.961 M 236.016 822.852 C 243.986 827.087 246.951 836.681 245.137 852.359 C 243.073 870.191 235.627 888.226 226.500 897.502 C 215.893 908.282 203.668 909.915 194.411 901.788 C 189.453 897.434 187.553 890.162 188.334 878.526 C 189.984 853.949 202.375 829.270 216.219 822.987 C 221.885 820.415 231.310 820.351 236.016 822.852 "/></g>
<g fill="#4F9F31FF" stroke="#4F9F31FF">
<path d="M 1094.522 799.126 C 1091.784 799.674 1089.414 800.253 1089.254 800.412 C 1089.095 800.571 1089.704 803.581 1090.606 807.101 C 1092.916 816.107 1092.248 821.558 1083.525 864.851 C 1079.386 885.394 1076.020 904.519 1076.044 907.351 C 1076.158 920.703 1082.856 927.517 1097.034 928.706 C 1103.653 929.261 1103.911 929.198 1104.447 926.890 C 1104.753 925.576 1107.959 910.158 1111.571 892.629 C 1118.702 858.032 1120.702 850.530 1125.144 841.720 C 1130.986 830.135 1138.720 824.154 1148.928 823.326 C 1155.673 822.780 1160.367 824.863 1163.730 829.898 C 1167.298 835.238 1166.727 841.976 1159.831 875.904 C 1154.067 904.264 1153.728 906.673 1154.788 911.725 C 1157.181 923.133 1163.709 928.300 1175.894 928.430 L 1182.412 928.500 1191.256 886.000 C 1201.335 837.563 1202.167 829.394 1198.098 818.826 C 1189.237 795.814 1152.585 791.152 1129.130 810.052 C 1125.753 812.774 1122.823 815.000 1122.620 815.000 C 1122.416 815.000 1122.001 813.763 1121.697 812.250 C 1120.853 808.048 1116.892 802.874 1113.000 800.889 C 1108.499 798.593 1100.837 797.862 1094.522 799.126 "/></g>
<g fill="#4F9F31FF" stroke="#4F9F31FF">
<path d="M 952.655 799.190 C 947.899 800.232 947.822 800.308 948.479 803.376 C 948.848 805.094 949.382 810.597 949.666 815.604 C 950.148 824.090 949.657 827.285 942.441 862.604 C 937.617 886.217 934.678 902.992 934.644 907.112 C 934.530 920.730 941.997 928.267 955.758 928.425 L 962.363 928.500 969.638 893.555 C 973.639 874.335 978.170 854.994 979.706 850.576 C 984.831 835.840 991.967 827.319 1001.614 824.416 C 1007.884 822.529 1011.656 822.661 1016.684 824.943 C 1026.182 829.256 1026.450 835.963 1018.634 873.710 C 1015.395 889.355 1013.000 903.501 1013.000 906.992 C 1013.000 921.069 1021.288 929.000 1035.997 929.000 L 1040.632 929.000 1049.538 886.250 C 1059.385 838.979 1060.369 829.858 1056.741 819.468 C 1052.565 807.509 1042.033 800.336 1025.886 798.457 C 1013.218 796.983 995.792 802.542 986.641 810.977 C 984.137 813.285 981.677 814.918 981.174 814.607 C 980.670 814.296 979.999 812.745 979.682 811.160 C 978.976 807.631 974.731 802.429 970.967 800.483 C 967.160 798.514 958.524 797.905 952.655 799.190 "/></g>
<g fill="#4F9F31FF" stroke="#4F9F31FF">
<path d="M 921.929 724.367 C 912.297 726.965 904.935 733.126 901.424 741.528 C 899.773 745.479 898.101 753.221 880.370 839.000 C 872.596 876.606 867.822 901.960 867.753 906.000 C 867.607 914.518 869.250 919.090 873.996 923.378 C 878.097 927.082 882.173 928.339 890.413 928.440 L 895.326 928.500 916.467 825.750 L 937.608 723.000 932.054 723.067 C 928.999 723.105 924.443 723.690 921.929 724.367 "/></g>
<g fill="#4F9F31FF" stroke="#4F9F31FF">
<path d="M 349.800 731.080 C 338.294 732.767 327.809 740.977 324.575 750.829 C 321.609 759.867 293.000 901.671 293.044 907.114 C 293.093 913.176 294.907 919.115 297.655 922.211 C 300.477 925.391 307.253 928.006 314.403 928.673 L 320.858 929.276 321.520 925.748 C 321.884 923.807 331.038 879.308 341.862 826.860 C 360.847 734.870 361.471 731.477 359.521 730.850 C 357.025 730.046 356.813 730.051 349.800 731.080 "/></g>
<g fill="#4F9F31FF" stroke="#4F9F31FF">
<path d="M 394.734 801.088 C 385.807 803.191 377.714 809.830 374.118 818.000 C 371.019 825.043 355.996 898.738 356.022 906.770 C 356.068 920.870 362.360 927.268 377.575 928.689 C 381.109 929.019 384.000 928.956 384.000 928.550 C 384.000 928.143 389.850 899.459 397.000 864.809 C 404.150 830.158 410.000 801.401 410.000 800.904 C 410.000 799.775 399.785 799.898 394.734 801.088 "/></g>
<g fill="#4F9F31FF" stroke="#4F9F31FF">
<path d="M 395.500 748.816 C 389.960 751.423 383.381 758.870 381.962 764.140 C 378.647 776.452 385.872 785.742 397.889 784.619 C 408.232 783.653 417.927 774.643 419.433 764.598 C 420.272 759.003 417.551 752.063 413.471 749.389 C 409.482 746.776 400.447 746.487 395.500 748.816 "/></g>
</svg>
